<?xml version="1.0" encoding="utf-8"?>
<!-- Generator: Adobe Illustrator 16.0.0, SVG Export Plug-In . SVG Version: 6.00 Build 0)  -->
<!DOCTYPE svg PUBLIC "-//W3C//DTD SVG 1.1//EN" "http://www.w3.org/Graphics/SVG/1.1/DTD/svg11.dtd">
<svg version="1.1" id="Layer_1" xmlns="http://www.w3.org/2000/svg" xmlns:xlink="http://www.w3.org/1999/xlink" x="0px" y="0px"
	 width="600px" height="600px" viewBox="0 0 600 600" enable-background="new 0 0 600 600" xml:space="preserve">
<g>
	<path fill="none" stroke="#0071BC" stroke-width="2" stroke-miterlimit="10" d="M308.115,0c0,0-100.073,46.393-157.069,155.745
		c0,0-39.765,85.497-31.812,160.385s24.521,141.165,92.784,218.044c0,0,56.333,52.358,95.435,65.613"/>
	<path fill="none" stroke="#0071BC" stroke-width="2" stroke-miterlimit="10" d="M287.571,34.469
		c0,0-101.398,74.226-125.921,201.472c0,0-9.94,86.163,7.291,147.798c17.23,61.633,74.146,141.964,113.328,170.988
		c35.787,26.51,51.031,27.836,51.031,27.836"/>
	<line fill="none" stroke="#000000" stroke-width="2" stroke-miterlimit="10" x1="304.139" y1="21.215" x2="315.406" y2="17.239"/>
	<line fill="none" stroke="#000000" stroke-width="2" stroke-miterlimit="10" x1="331.975" y1="19.89" x2="341.251" y2="13.924"/>
	<path fill="none" stroke="#000000" stroke-width="2" stroke-miterlimit="10" d="M345.893,19.89c0,0-47.718,25.184-58.985,39.101"/>
	<path fill="none" stroke="#0071BC" stroke-width="2" stroke-miterlimit="10" d="M355.169,551.41c0,0-20.544,1.326-72.238-47.717
		c-51.693-49.042-84.831-119.295-91.458-143.816s-6.627-64.285-1.325-104.05s31.812-94.111,31.812-94.111
		C257.084,92.129,338.602,45.736,338.602,45.736l53.019,74.226"/>
	<line fill="none" stroke="#42210B" stroke-width="2" stroke-miterlimit="10" x1="239.853" y1="133.88" x2="398.248" y2="227.326"/>
	
		<line fill="none" stroke="#42210B" stroke-width="2" stroke-miterlimit="10" x1="214.669" y1="178.947" x2="382.343" y2="263.113"/>
	<line fill="none" stroke="#42210B" stroke-width="2" stroke-miterlimit="10" x1="297.511" y1="74.896" x2="410.84" y2="222.686"/>
	<polyline fill="none" stroke="#000000" stroke-width="2" stroke-miterlimit="10" points="396.26,131.23 410.84,153.1 
		390.957,129.241 	"/>
	
		<line fill="none" stroke="#42210B" stroke-width="2" stroke-miterlimit="10" x1="189.485" y1="269.083" x2="379.691" y2="274.384"/>
	
		<line fill="none" stroke="#42210B" stroke-width="2" stroke-miterlimit="10" x1="186.171" y1="314.148" x2="378.366" y2="314.812"/>
	
		<line fill="none" stroke="#42210B" stroke-width="2" stroke-miterlimit="10" x1="215.332" y1="412.897" x2="377.702" y2="311.498"/>
	<line fill="none" stroke="#42210B" stroke-width="2" stroke-miterlimit="10" x1="243.167" y1="457.3" x2="388.97" y2="347.949"/>
	<line fill="none" stroke="#42210B" stroke-width="2" stroke-miterlimit="10" x1="292.209" y1="511.647" x2="387.644" y2="367.17"/>
	
		<line fill="none" stroke="#000000" stroke-width="2" stroke-miterlimit="10" x1="329.986" y1="540.145" x2="341.915" y2="521.589"/>
	<polyline fill="none" stroke="#29ABE2" stroke-width="2" stroke-miterlimit="10" points="428.734,392.354 397.585,442.06 
		429.397,386.389 	"/>
	<path fill="none" stroke="#0071BC" stroke-width="2" stroke-miterlimit="10" d="M481.091,214.077c0,0-81.517-27.171-102.725,68.263
		c0,0-9.279,49.705,27.172,85.493c0,0,24.522,26.511,59.646,22.533"/>
	<path fill="none" stroke="#0071BC" stroke-width="2" stroke-miterlimit="10" d="M471.149,267.097
		c-30.295-8.262-33.801,24.52-33.801,24.52s-3.974,28.5,19.884,34.464c0,0,23.195,6.628,29.823-21.208
		C487.056,304.873,493.02,273.061,471.149,267.097z"/>
	<path fill="none" stroke="#000000" stroke-width="2" stroke-miterlimit="10" d="M402.888,247.215c0,0,12.592-27.173,45.729-27.837"
		/>
	<path fill="none" stroke="#000000" stroke-width="2" stroke-miterlimit="10" d="M492.356,224.019c0,0-25.184-13.919-43.079-10.604"
		/>
	<path fill="none" stroke="#000000" stroke-width="2" stroke-miterlimit="10" d="M391.62,280.352c0,0,8.616-27.172,10.604-28.499"/>
	<path fill="none" stroke="#000000" stroke-width="2" stroke-miterlimit="10" d="M404.875,254.504c0,0,10.604-24.522,41.089-31.149"
		/>
	<path fill="none" stroke="#29ABE2" stroke-width="2" stroke-miterlimit="10" d="M382.343,290.955c0,0,0,52.356,27.172,75.552
		c0,0,33.136,26.509,53.681,19.882"/>
	<path fill="none" stroke="#000000" stroke-width="2" stroke-miterlimit="10" d="M386.98,294.931c0,0,4.956,54.072,29.162,69.587
		c0,0,21.206,17.232,47.053,17.894"/>
	<path fill="none" stroke="#B3B3B3" stroke-width="2" stroke-miterlimit="10" d="M392.284,302.885c0,0,1.987,37.775,21.206,53.68
		c28.906,23.921,54.346,19.884,54.346,19.884"/>
	<path fill="none" stroke="#000000" stroke-width="2" stroke-miterlimit="10" d="M469.823,278.363c0,0,9.942,11.929,9.278,15.907"/>
	<path fill="none" stroke="#000000" stroke-width="2" stroke-miterlimit="10" d="M453.255,304.873c0,0,19.883,11.928,22.533,11.928"
		/>
	<path fill="none" stroke="#000000" stroke-width="2" stroke-miterlimit="10" d="M465.847,306.197c0,0,9.278,5.966,11.267,3.978"/>
	<path fill="none" stroke="#ED1E79" stroke-width="2" stroke-miterlimit="10" d="M444.64,300.232c0,0,12.592,14.58,25.847,19.882"/>
	<path fill="none" stroke="#000000" stroke-width="2" stroke-miterlimit="10" d="M452.592,287.641c0,0,10.604,3.314,10.604,5.965"/>
	<path fill="none" stroke="#ED1E79" stroke-width="2" stroke-miterlimit="10" d="M458.558,286.978c0,0,7.289,2.65,7.289,5.302"/>
	<path fill="none" stroke="#000000" stroke-width="2" stroke-miterlimit="10" d="M447.291,291.617c0,0,11.267,1.328,11.267,3.977"/>
	<polyline fill="none" stroke="#0071BC" stroke-width="2" stroke-miterlimit="10" points="436.023,288.967 423.432,286.316 
		420.781,294.931 436.023,300.232 	"/>
	<polyline fill="none" stroke="#0071BC" stroke-width="2" stroke-miterlimit="10" points="488.38,302.221 498.983,306.197 
		495.67,317.465 483.079,314.813 	"/>
	<path fill="none" stroke="#000000" stroke-width="2" stroke-miterlimit="10" d="M408.188,257.155c0,0,17.231-31.813,51.693-31.149"
		/>
	<path fill="none" stroke="#000000" stroke-width="2" stroke-miterlimit="10" d="M465.847,227.995c0,0,19.882,1.987,21.209,5.964"/>
	<path fill="none" stroke="#000000" stroke-width="2" stroke-miterlimit="10" d="M395.598,285.652c0,0,6.627-25.847,7.952-28.497"/>
	<path fill="none" stroke="#000000" stroke-width="2" stroke-miterlimit="10" d="M411.502,264.445c0,0,11.93-32.474,51.693-33.136"
		/>
	<path fill="none" stroke="#B3B3B3" stroke-width="2" stroke-miterlimit="10" d="M405.538,323.43c0,0,21.87,52.356,69.587,43.077"/>
	<path fill="none" stroke="#000000" stroke-width="2" stroke-miterlimit="10" d="M480.428,265.771c0,0-33.8-23.197-49.706,18.557"/>
	<path fill="none" stroke="#000000" stroke-width="2" stroke-miterlimit="10" d="M428.734,304.209c0,0,7.953,44.405,50.367,27.173"
		/>
	<path fill="none" stroke="#000000" stroke-width="2" stroke-miterlimit="10" d="M415.479,265.108c0,0,19.22-33.138,47.716-28.498"
		/>
	
		<line fill="none" stroke="#000000" stroke-width="2" stroke-miterlimit="10" x1="269.014" y1="392.354" x2="375.053" y2="324.092"/>
	<line fill="none" stroke="#000000" stroke-width="2" stroke-miterlimit="10" x1="230.575" y1="438.083" x2="256.421" y2="418.2"/>
	<line fill="none" stroke="#000000" stroke-width="2" stroke-miterlimit="10" x1="234.552" y1="442.06" x2="277.629" y2="410.911"/>
	<line fill="none" stroke="#000000" stroke-width="2" stroke-miterlimit="10" x1="300.825" y1="390.366" x2="371.075" y2="340.66"/>
	
		<line fill="none" stroke="#000000" stroke-width="2" stroke-miterlimit="10" x1="301.488" y1="395.667" x2="378.366" y2="342.648"/>
	
		<line fill="none" stroke="#000000" stroke-width="2" stroke-miterlimit="10" x1="235.877" y1="446.699" x2="383.668" y2="343.975"/>
	<line fill="none" stroke="#ED1E79" stroke-width="2" stroke-miterlimit="10" x1="239.853" y1="451.337" x2="386.98" y2="343.975"/>
	<path fill="none" stroke="#000000" stroke-width="2" stroke-miterlimit="10" d="M246.48,453.326c0,0-20.544-23.195-19.881-25.846"
		/>
	<path fill="none" stroke="#000000" stroke-width="2" stroke-miterlimit="10" d="M251.121,450.013c0,0-20.545-21.87-20.545-23.859"
		/>
	
		<line fill="none" stroke="#000000" stroke-width="2" stroke-miterlimit="10" x1="253.771" y1="446.699" x2="237.866" y2="426.816"/>
	
		<line fill="none" stroke="#000000" stroke-width="2" stroke-miterlimit="10" x1="260.398" y1="443.385" x2="250.457" y2="435.432"/>
	<line fill="none" stroke="#ED1E79" stroke-width="2" stroke-miterlimit="10" x1="217.32" y1="417.538" x2="375.053" y2="317.465"/>
	
		<line fill="none" stroke="#000000" stroke-width="2" stroke-miterlimit="10" x1="300.163" y1="518.938" x2="340.591" y2="461.278"/>
	
		<line fill="none" stroke="#000000" stroke-width="2" stroke-miterlimit="10" x1="304.802" y1="522.913" x2="333.962" y2="479.835"/>
	<line fill="none" stroke="#000000" stroke-width="2" stroke-miterlimit="10" x1="310.767" y1="526.89" x2="323.358" y2="505.683"/>
	<line fill="none" stroke="#ED1E79" stroke-width="2" stroke-miterlimit="10" x1="345.893" y1="449.35" x2="396.923" y2="369.157"/>
	<line fill="none" stroke="#000000" stroke-width="2" stroke-miterlimit="10" x1="352.52" y1="447.36" x2="396.923" y2="377.773"/>
	
		<line fill="none" stroke="#000000" stroke-width="2" stroke-miterlimit="10" x1="402.225" y1="396.993" x2="412.828" y2="379.098"/>
	<line fill="none" stroke="#000000" stroke-width="2" stroke-miterlimit="10" x1="401.562" y1="404.947" x2="413.49" y2="387.052"/>
	
		<line fill="none" stroke="#000000" stroke-width="2" stroke-miterlimit="10" x1="393.609" y1="436.095" x2="417.468" y2="395.667"/>
	<line fill="none" stroke="#000000" stroke-width="2" stroke-miterlimit="10" x1="326.01" y1="530.203" x2="333.962" y2="518.938"/>
	
		<line fill="none" stroke="#000000" stroke-width="2" stroke-miterlimit="10" x1="327.998" y1="520.926" x2="331.312" y2="514.298"/>
	<path fill="none" stroke="#000000" stroke-width="2" stroke-miterlimit="10" d="M247.144,392.351c0,0,5.965,18.564,11.267,20.549
		l-30.486,21.208"/>
	<path fill="none" stroke="#000000" stroke-width="2" stroke-miterlimit="10" d="M267.688,406.268c0,0,13.918,20.545,15.906,20.545"
		/>
	
		<line fill="none" stroke="#000000" stroke-width="2" stroke-miterlimit="10" x1="187.496" y1="299.566" x2="375.053" y2="302.217"/>
	
		<line fill="none" stroke="#ED1E79" stroke-width="2" stroke-miterlimit="10" x1="186.834" y1="304.868" x2="376.378" y2="308.182"/>
	
		<line fill="none" stroke="#000000" stroke-width="2" stroke-miterlimit="10" x1="186.171" y1="310.833" x2="377.702" y2="311.498"/>
	
		<line fill="none" stroke="#000000" stroke-width="2" stroke-miterlimit="10" x1="272.327" y1="294.926" x2="334.625" y2="292.939"/>
	
		<line fill="none" stroke="#000000" stroke-width="2" stroke-miterlimit="10" x1="289.559" y1="296.252" x2="371.738" y2="298.241"/>
	<line fill="none" stroke="#000000" stroke-width="2" stroke-miterlimit="10" x1="346" y1="294" x2="376" y2="294"/>
	
		<line fill="none" stroke="#000000" stroke-width="2" stroke-miterlimit="10" x1="290.885" y1="279.021" x2="376.378" y2="281.672"/>
	
		<line fill="none" stroke="#000000" stroke-width="2" stroke-miterlimit="10" x1="304.139" y1="284.323" x2="370.414" y2="286.312"/>
	
		<line fill="none" stroke="#000000" stroke-width="2" stroke-miterlimit="10" x1="286.908" y1="273.057" x2="373.064" y2="278.359"/>
	
		<line fill="none" stroke="#000000" stroke-width="2" stroke-miterlimit="10" x1="192.799" y1="287.637" x2="189.485" y2="313.484"/>
	<line fill="none" stroke="#000000" stroke-width="2" stroke-miterlimit="10" x1="196.775" y1="291.614" x2="195.45" y2="312.821"/>
	<line fill="none" stroke="#000000" stroke-width="2" stroke-miterlimit="10" x1="200.751" y1="295.59" x2="199.426" y2="312.821"/>
	
		<line fill="none" stroke="#000000" stroke-width="2" stroke-miterlimit="10" x1="196.112" y1="284.323" x2="245.155" y2="287.637"/>
	
		<line fill="none" stroke="#000000" stroke-width="2" stroke-miterlimit="10" x1="204.065" y1="290.288" x2="237.866" y2="292.276"/>
	<line fill="none" stroke="#000000" stroke-width="2" stroke-miterlimit="10" x1="205.391" y1="296.252" x2="226.599" y2="295.59"/>
	<line fill="none" stroke="#000000" stroke-width="2" stroke-miterlimit="10" x1="195.45" y1="276.37" x2="249.794" y2="275.708"/>
	<line fill="none" stroke="#000000" stroke-width="2" stroke-miterlimit="10" x1="229.25" y1="155.75" x2="262.387" y2="174.97"/>
	
		<line fill="none" stroke="#000000" stroke-width="2" stroke-miterlimit="10" x1="265.038" y1="168.343" x2="276.967" y2="172.982"/>
	
		<line fill="none" stroke="#000000" stroke-width="2" stroke-miterlimit="10" x1="267.025" y1="158.402" x2="398.248" y2="234.616"/>
	<line fill="none" stroke="#ED1E79" stroke-width="2" stroke-miterlimit="10" x1="219.309" y1="174.97" x2="380.354" y2="255.16"/>
	
		<line fill="none" stroke="#000000" stroke-width="2" stroke-miterlimit="10" x1="386.318" y1="253.835" x2="222.622" y2="170.331"/>
	
		<line fill="#FFFFFF" stroke="#000000" stroke-width="2" stroke-miterlimit="10" x1="301.603" y1="72.464" x2="344.39" y2="131.042"/>
	
		<line fill="#FFFFFF" stroke="#000000" stroke-width="2" stroke-miterlimit="10" x1="305.678" y1="68.39" x2="349.483" y2="131.042"/>
	
		<line fill="#FFFFFF" stroke="#000000" stroke-width="2" stroke-miterlimit="10" x1="348.975" y1="136.136" x2="409.08" y2="209.997"/>
	
		<line fill="#FFFFFF" stroke="#29ABE2" stroke-width="2" stroke-miterlimit="10" x1="360.69" y1="143.267" x2="402.459" y2="199.298"/>
	
		<line fill="#FFFFFF" stroke="#000000" stroke-width="2" stroke-miterlimit="10" x1="376.48" y1="158.04" x2="417.231" y2="215.599"/>
	
		<line fill="#FFFFFF" stroke="#000000" stroke-width="2" stroke-miterlimit="10" x1="403.986" y1="190.64" x2="419.778" y2="212.543"/>
	
		<line fill="#FFFFFF" stroke="#000000" stroke-width="2" stroke-miterlimit="10" x1="416.721" y1="203.374" x2="424.872" y2="213.562"/>
	
		<line fill="#FFFFFF" stroke="#000000" stroke-width="2" stroke-miterlimit="10" x1="380.047" y1="138.173" x2="397.873" y2="161.096"/>
	
		<line fill="#FFFFFF" stroke="#000000" stroke-width="2" stroke-miterlimit="10" x1="375.463" y1="139.192" x2="389.725" y2="158.04"/>
	
		<line fill="#FFFFFF" stroke="#000000" stroke-width="2" stroke-miterlimit="10" x1="330.127" y1="51.58" x2="353.561" y2="87.236"/>
	
		<line fill="#FFFFFF" stroke="#000000" stroke-width="2" stroke-miterlimit="10" x1="340.315" y1="62.276" x2="373.425" y2="100.99"/>
	
		<line fill="#FFFFFF" stroke="#000000" stroke-width="2" stroke-miterlimit="10" x1="318.412" y1="66.352" x2="333.184" y2="87.745"/>
	
		<line fill="#FFFFFF" stroke="#000000" stroke-width="2" stroke-miterlimit="10" x1="335.222" y1="77.559" x2="344.899" y2="92.838"/>
	
		<line fill="#FFFFFF" stroke="#000000" stroke-width="2" stroke-miterlimit="10" x1="310.263" y1="65.333" x2="342.353" y2="111.686"/>
	
		<line fill="#FFFFFF" stroke="#000000" stroke-width="2" stroke-miterlimit="10" x1="337.259" y1="39.356" x2="351.012" y2="29.678"/>
	
		<line fill="#FFFFFF" stroke="#000000" stroke-width="2" stroke-miterlimit="10" x1="342.861" y1="28.66" x2="349.483" y2="25.604"/>
	<path fill="none" stroke="#000000" stroke-width="2" stroke-miterlimit="10" d="M308.733,30.695c0,0-47.881,31.071-86.594,84.557
		c-38.713,53.484-57.56,123.772-53.994,168.599"/>
	<path fill="none" stroke="#000000" stroke-width="2" stroke-miterlimit="10" d="M303.131,26.621c0,0-37.694,30.054-43.807,37.694"
		/>
	<line fill="none" stroke="#000000" stroke-width="2" stroke-miterlimit="10" x1="277.662" y1="42.922" x2="304.658" y2="49.544"/>
	<line fill="none" stroke="#000000" stroke-width="2" stroke-miterlimit="10" x1="289.887" y1="40.374" x2="309.243" y2="42.922"/>
	<path fill="none" stroke="#ED1E79" stroke-width="2" stroke-miterlimit="10" d="M289.887,65.845c0,0-75.897,58.578-101.875,154.34"
		/>
	<path fill="none" stroke="#000000" stroke-width="2" stroke-miterlimit="10" d="M277.68,66.363c0,0-108.476,77.482-105.377,242.521
		"/>
	<line fill="none" stroke="#000000" stroke-width="2" stroke-miterlimit="10" x1="268.382" y1="60.164" x2="299.374" y2="62.488"/>
	<path fill="none" stroke="#ED1E79" stroke-width="2" stroke-miterlimit="10" d="M136.661,373.977c0,0,19.371,0.776,24.794-2.324"/>
	<path fill="none" stroke="#ED1E79" stroke-width="2" stroke-miterlimit="10" d="M142.859,369.328c0,0,12.397,1.549,14.722,0"/>
	<line fill="none" stroke="#ED1E79" stroke-width="2" stroke-miterlimit="10" x1="147" y1="364" x2="158" y2="364"/>
	<path fill="none" stroke="#ED1E79" stroke-width="2" stroke-miterlimit="10" d="M134.336,382.499c0,0,30.219,0.776,30.994-3.099"/>
	<path fill="none" stroke="#000000" stroke-width="2" stroke-miterlimit="10" d="M146.733,424.341c0,0,24.794,0.774,27.118-3.874"/>
	<path fill="none" stroke="#000000" stroke-width="2" stroke-miterlimit="10" d="M152.932,431.313c0,0,27.118-3.098,30.218-6.198"/>
	<path fill="none" stroke="#000000" stroke-width="2" stroke-miterlimit="10" d="M152.932,439.063c0,0,24.794-3.099,27.893-6.199"/>
	<path fill="none" stroke="#000000" stroke-width="2" stroke-miterlimit="10" d="M156.031,444.486c0,0,24.021-3.101,25.57-5.424"/>
	<path fill="none" stroke="#000000" stroke-width="2" stroke-miterlimit="10" d="M169.203,463.082c0,0,17.047,31.767,20.146,33.316"
		/>
	<path fill="none" stroke="#000000" stroke-width="2" stroke-miterlimit="10" d="M177.727,468.505c0,0,13.172,26.345,15.496,26.345"
		/>
	<path fill="none" stroke="#000000" stroke-width="2" stroke-miterlimit="10" d="M169.203,477.029c0,0,24.02-7.749,26.345-10.073"/>
	<path fill="none" stroke="#000000" stroke-width="2" stroke-miterlimit="10" d="M173.852,484.003c0,0,23.246-8.523,27.12-12.398"/>
	<path fill="none" stroke="#754C24" stroke-width="2" stroke-miterlimit="10" d="M200.972,521.969c0,0,22.47-12.397,24.795-17.045"
		/>
	<line fill="none" stroke="#754C24" stroke-width="2" stroke-miterlimit="10" x1="207.17" y1="525.068" x2="230.416" y2="510.346"/>
	<path fill="none" stroke="#754C24" stroke-width="2" stroke-miterlimit="10" d="M213.369,528.169c0,0,17.047-8.523,19.371-13.947"
		/>
	<path fill="none" stroke="#000000" stroke-width="2" stroke-miterlimit="10" d="M240.488,547.538c0,0,36.417,27.895,41.066,27.895"
		/>
	<path fill="none" stroke="#000000" stroke-width="2" stroke-miterlimit="10" d="M251.335,546.764c0,0,29.443,24.793,36.417,26.344"
		/>
	<line fill="none" stroke="#000000" stroke-width="2" stroke-miterlimit="10" x1="252.11" y1="561.484" x2="271.48" y2="549.863"/>
	<path fill="none" stroke="#000000" stroke-width="2" stroke-miterlimit="10" d="M256.76,566.909c0,0,17.821-9.3,18.595-12.397"/>
	
		<line fill="none" stroke="#000000" stroke-width="2" stroke-miterlimit="10" x1="262.183" y1="570.008" x2="280.004" y2="557.611"/>
	<path fill="none" stroke="#000000" stroke-width="2" stroke-miterlimit="10" d="M243.587,556.063c0,0,17.047-10.073,17.047-13.947"
		/>
	<path fill="none" stroke="#ED1E79" stroke-width="2" stroke-miterlimit="10" d="M420.248,281.768c0,0,17.047-48.04,60.437-26.346"
		/>
	
		<line fill="none" stroke="#000000" stroke-width="2" stroke-miterlimit="10" x1="323.395" y1="208.158" x2="384.607" y2="238.377"/>
	<path fill="none" stroke="#754C24" stroke-width="2" stroke-miterlimit="10" d="M200.972,515.769c0,0,22.469-12.396,24.019-15.496"
		/>
	
		<line fill="none" stroke="#000000" stroke-width="2" stroke-miterlimit="10" x1="297.051" y1="587.052" x2="303.249" y2="583.179"/>
	<path fill="none" stroke="#000000" stroke-width="2" stroke-miterlimit="10" d="M348.965,563.032
		c0,0-82.908-29.444-130.947-116.225"/>
	<path fill="none" stroke="#000000" stroke-width="2" stroke-miterlimit="10" d="M196.322,413.491c0,0,30.994,59.66,52.689,70.508"
		/>
	<path fill="none" stroke="#000000" stroke-width="2" stroke-miterlimit="10" d="M229.64,453.78c0,0,59.661,82.907,125.522,104.603"
		/>
	<path fill="none" stroke="#000000" stroke-width="2" stroke-miterlimit="10" d="M214.918,463.854
		c0,0,54.239,81.355,110.802,103.827"/>
	<path fill="none" stroke="#B3B3B3" stroke-width="2" stroke-miterlimit="10" d="M490.758,341.428c0,0-39.518,24.02-58.111-7.748"/>
	
		<line fill="none" stroke="#754C24" stroke-width="2" stroke-miterlimit="10" x1="159.906" y1="143.068" x2="187.024" y2="150.816"/>
	
		<line fill="none" stroke="#754C24" stroke-width="2" stroke-miterlimit="10" x1="162.229" y1="138.419" x2="187.799" y2="146.942"/>
	
		<line fill="none" stroke="#754C24" stroke-width="2" stroke-miterlimit="10" x1="166.104" y1="134.545" x2="191.673" y2="143.068"/>
	
		<line fill="none" stroke="#754C24" stroke-width="2" stroke-miterlimit="10" x1="173.078" y1="127.571" x2="194.772" y2="139.969"/>
	<line fill="none" stroke="#000000" stroke-width="2" stroke-miterlimit="10" x1="192.448" y1="103.551" x2="207.945" y2="82.631"/>
	<line fill="none" stroke="#000000" stroke-width="2" stroke-miterlimit="10" x1="211.044" y1="85.73" x2="204.07" y2="95.804"/>
	<line fill="none" stroke="#000000" stroke-width="2" stroke-miterlimit="10" x1="209.495" y1="94.254" x2="214.144" y2="88.831"/>
	<line fill="none" stroke="#000000" stroke-width="2" stroke-miterlimit="10" x1="202.521" y1="84.955" x2="221.892" y2="101.227"/>
	<line fill="none" stroke="#000000" stroke-width="2" stroke-miterlimit="10" x1="200.197" y1="89.604" x2="214.918" y2="101.227"/>
	<line fill="none" stroke="#000000" stroke-width="2" stroke-miterlimit="10" x1="192.448" y1="98.902" x2="209.495" y2="108.975"/>
	<line fill="none" stroke="#000000" stroke-width="2" stroke-miterlimit="10" x1="187.024" y1="103.551" x2="204.07" y2="112.075"/>
	<line fill="none" stroke="#000000" stroke-width="2" stroke-miterlimit="10" x1="186.25" y1="106.651" x2="205.62" y2="119.049"/>
	
		<line fill="none" stroke="#000000" stroke-width="2" stroke-miterlimit="10" x1="178.501" y1="115.174" x2="199.421" y2="125.247"/>
	
		<line fill="none" stroke="#000000" stroke-width="2" stroke-miterlimit="10" x1="179.276" y1="108.201" x2="195.548" y2="117.498"/>
	<line fill="none" stroke="#4D4D4D" stroke-width="2" stroke-miterlimit="10" x1="216.623" y1="72.523" x2="228.196" y2="84.58"/>
	<line fill="none" stroke="#4D4D4D" stroke-width="2" stroke-miterlimit="10" x1="220.481" y1="68.666" x2="227.715" y2="60.949"/>
	<line fill="none" stroke="#4D4D4D" stroke-width="2" stroke-miterlimit="10" x1="224.82" y1="69.148" x2="229.161" y2="65.772"/>
	<line fill="none" stroke="#4D4D4D" stroke-width="2" stroke-miterlimit="10" x1="229.644" y1="57.575" x2="237.359" y2="66.255"/>
	
		<line fill="none" stroke="#4D4D4D" stroke-width="2" stroke-miterlimit="10" x1="177.082" y1="123.156" x2="193.959" y2="133.284"/>
	
		<line fill="none" stroke="#4D4D4D" stroke-width="2" stroke-miterlimit="10" x1="224.339" y1="165.111" x2="383.472" y2="248.052"/>
	<line fill="none" stroke="#808080" stroke-width="2" stroke-miterlimit="10" x1="234.465" y1="54.681" x2="244.592" y2="61.915"/>
	<line fill="none" stroke="#808080" stroke-width="2" stroke-miterlimit="10" x1="240.734" y1="52.27" x2="250.861" y2="64.325"/>
	<line fill="none" stroke="#808080" stroke-width="2" stroke-miterlimit="10" x1="244.592" y1="53.717" x2="253.754" y2="60.949"/>
	<path fill="none" stroke="#808080" stroke-width="2" stroke-miterlimit="10" d="M185.762,257.706
		c0,0,13.02-136.478,139.843-209.291"/>
	
		<line fill="none" stroke="#808080" stroke-width="2" stroke-miterlimit="10" x1="298.118" y1="514.748" x2="392.152" y2="366.707"/>
	<path fill="none" stroke="#808080" stroke-width="2" stroke-miterlimit="10" d="M398.902,316.553c0,0,13.501,68.475,86.316,53.044"
		/>
	
		<line fill="none" stroke="#808080" stroke-width="2" stroke-miterlimit="10" x1="408.546" y1="268.331" x2="405.654" y2="282.798"/>
	<path fill="none" stroke="#808080" stroke-width="2" stroke-miterlimit="10" d="M453.875,255.308c0,0-21.219,5.304-27.003,27.968"
		/>
	<path fill="none" stroke="#808080" stroke-width="2" stroke-miterlimit="10" d="M137.54,214.313c0,0-2.41-10.126,3.858-11.574
		c6.269-1.446,3.375,5.305,3.375,5.305"/>
	<line fill="none" stroke="#808080" stroke-width="2" stroke-miterlimit="10" x1="150.56" y1="201.775" x2="166.955" y2="202.739"/>
	
		<line fill="none" stroke="#808080" stroke-width="2" stroke-miterlimit="10" x1="151.524" y1="195.023" x2="168.402" y2="199.362"/>
	<path fill="none" stroke="#808080" stroke-width="2" stroke-miterlimit="10" d="M129.825,308.351c0,0,19.288,1.445,21.217,0.48"/>
</g>
</svg>
