<?xml version="1.0" encoding="utf-8"?>
<!-- Generator: Adobe Illustrator 16.0.0, SVG Export Plug-In . SVG Version: 6.00 Build 0)  -->
<!DOCTYPE svg PUBLIC "-//W3C//DTD SVG 1.1//EN" "http://www.w3.org/Graphics/SVG/1.1/DTD/svg11.dtd">
<svg version="1.1" id="Layer_1" xmlns="http://www.w3.org/2000/svg" xmlns:xlink="http://www.w3.org/1999/xlink" x="0px" y="0px"
	 width="1024px" height="728px" viewBox="0 0 1024 728" enable-background="new 0 0 1024 728" xml:space="preserve">
<path fill-rule="evenodd" clip-rule="evenodd" fill="#FFFFFF" d="M1019.867,395.16c-26.62,119.078-170.207,172.882-301.225,118.025
	c-73.616-30.828-138.497-73.951-198.108-127.836c-25.809,20.703-50.603,42.211-77.032,61.475
	c-56.229,40.981-116.921,73.849-186.224,85.763C152.854,550.529,26.354,480.461,8.126,380.482
	c-0.226-1.242-2.579-2.752-3.912-15.196c-1.333-19.554-2.222-16.887,1.15-33.25c24.061-120.586,166.83-172.928,288.379-123.553
	c77.791,31.598,143.879,79.817,207.25,137.535c15.024-13.01,29.87-26.227,45.107-38.986
	c59.169-49.567,122.409-91.742,198.784-110.575c115.215-28.402,232.059,34.05,272.106,145.795c0.46,1.283,2.534,6.503,3.636,12.374
	C1022.645,374.808,1022.829,378.476,1019.867,395.16z M530.09,374.031c59.917,57.556,124.046,101.63,200.951,125.751
	c56.414,17.694,110.877,13.836,164.006-11.801c83.562-40.326,115.596-137.73,68.795-209.409
	c-30.835-47.212-107.233-74.275-170.889-61.698C687.417,237.719,607.543,300.685,530.09,374.031z M489.807,358.089
	c-40.184-47.146-115.508-99.172-180.565-126.656c-58.088-24.535-115.598-22.31-172.519,2.586
	c-63.196,27.655-103.386,89.515-97.41,148.233c9.113,89.552,84.689,136.006,168.835,127.254
	C321.238,497.74,409.366,433.887,489.807,358.089z"/>
</svg>
