<?xml version="1.0" encoding="utf-8"?>
<!-- Generator: Adobe Illustrator 16.0.0, SVG Export Plug-In . SVG Version: 6.00 Build 0)  -->
<!DOCTYPE svg PUBLIC "-//W3C//DTD SVG 1.1//EN" "http://www.w3.org/Graphics/SVG/1.1/DTD/svg11.dtd">
<svg version="1.1" id="Layer_1" xmlns="http://www.w3.org/2000/svg" xmlns:xlink="http://www.w3.org/1999/xlink" x="0px" y="0px"
	 width="933.328px" height="317.987px" viewBox="0 0 933.328 317.987" enable-background="new 0 0 933.328 317.987"
	 xml:space="preserve">
<path fill-rule="evenodd" clip-rule="evenodd" fill="none" stroke="#000000" stroke-width="2" stroke-miterlimit="10" d="
	M930.27,188.83c-24.328,108.822-155.549,157.992-275.282,107.86c-67.275-28.173-126.569-67.582-181.047-116.826
	c-23.586,18.92-46.244,38.575-70.397,56.18c-51.386,37.453-106.852,67.488-170.186,78.377
	C137.927,330.818,22.322,266.784,5.664,175.416c-0.207-1.135-2.357-2.515-3.575-13.887c-1.219-17.871-2.031-15.434,1.051-30.388
	C25.128,20.941,155.601-26.893,266.682,18.229c71.091,28.877,131.488,72.943,189.4,125.69c13.73-11.89,27.298-23.969,41.223-35.629
	C551.378,62.993,609.172,24.45,678.969,7.239c105.292-25.956,212.073,31.117,248.672,133.238c0.42,1.172,2.315,5.943,3.322,11.309
	C932.808,170.229,932.976,173.582,930.27,188.83z M482.674,169.52c54.756,52.599,113.362,92.878,183.645,114.921
	c51.556,16.17,101.327,12.645,149.881-10.784c76.364-36.854,105.64-125.869,62.87-191.374
	c-28.18-43.146-97.998-67.878-156.172-56.384C626.451,44.948,553.456,102.491,482.674,169.52z M445.86,154.951
	C409.137,111.866,340.3,64.32,280.846,39.203c-53.085-22.422-105.642-20.389-157.661,2.363
	c-57.753,25.273-94.482,81.806-89.021,135.467c8.328,81.839,77.396,124.292,154.294,116.294
	C291.809,282.576,372.347,224.221,445.86,154.951z"/>
<g>
	<rect x="94.788" y="69.481" fill-rule="evenodd" clip-rule="evenodd" fill="#1A1A1A" width="246" height="33"/>
	<rect x="126.788" y="223.481" fill-rule="evenodd" clip-rule="evenodd" fill="#1A1A1A" width="185" height="33"/>
	<rect x="59.788" y="122.481" fill-rule="evenodd" clip-rule="evenodd" fill="#1A1A1A" width="319" height="33"/>
	<rect x="58.788" y="172.481" fill-rule="evenodd" clip-rule="evenodd" fill="#1A1A1A" width="319" height="33"/>
	<rect x="571.788" y="127.481" fill-rule="evenodd" clip-rule="evenodd" fill="#1A1A1A" width="324" height="33"/>
	<rect x="589.788" y="76.481" fill-rule="evenodd" clip-rule="evenodd" fill="#1A1A1A" width="292" height="33"/>
	<rect x="585.788" y="174.481" fill-rule="evenodd" clip-rule="evenodd" fill="#1A1A1A" width="299" height="33"/>
	<rect x="620.788" y="224.481" fill-rule="evenodd" clip-rule="evenodd" fill="#1A1A1A" width="218" height="33"/>
</g>
<rect x="41.518" y="76.971" fill="none" width="354.541" height="184.02"/>
<text transform="matrix(1 0 0 1 98.0195 96.978)"><tspan x="0" y="0" fill="#FFFFFF" font-family="'OptimaLTStd-DemiBold'" font-size="27">“We believe in a life </tspan><tspan x="-36.031" y="50" fill="#FFFFFF" font-family="'OptimaLTStd-DemiBold'" font-size="27">of  intent - lived by design </tspan><tspan x="-33.75" y="100" fill="#FFFFFF" font-family="'OptimaLTStd-DemiBold'" font-size="27">and technology that solve </tspan><tspan x="30.023" y="150" fill="#FFFFFF" font-family="'OptimaLTStd-DemiBold'" font-size="27">our problems.” </tspan></text>
<rect x="557.096" y="79.514" fill="none" width="354.541" height="180.494"/>
<text transform="matrix(1 0 0 1 588.3525 99.5205)"><tspan x="0" y="0" fill="#FFFFFF" font-family="'OptimaLTStd-DemiBold'" font-size="27">“We strive to be original  </tspan><tspan x="-17.225" y="50" fill="#FFFFFF" font-family="'OptimaLTStd-DemiBold'" font-size="27">to create something better. </tspan><tspan x="-1.283" y="100" fill="#FFFFFF" font-family="'OptimaLTStd-DemiBold'" font-size="27">And we do not shy away </tspan><tspan x="42.012" y="150" fill="#FFFFFF" font-family="'OptimaLTStd-DemiBold'" font-size="27">from hard work.” </tspan></text>
<path fill-rule="evenodd" clip-rule="evenodd" fill="none" stroke="#000000" stroke-width="2" stroke-miterlimit="10" d="
	M269.788,301.481c0,0,58-21,67-30"/>
<path fill-rule="evenodd" clip-rule="evenodd" fill="none" stroke="#000000" stroke-width="2" stroke-miterlimit="10" d="
	M308.788,269.481c0,0,38-18,41-22"/>
<path fill-rule="evenodd" clip-rule="evenodd" fill="none" stroke="#333333" stroke-width="2" stroke-miterlimit="10" d="
	M182.788,304.481c0,0,38-3,50-6"/>
<path fill-rule="evenodd" clip-rule="evenodd" fill="none" stroke="#000000" stroke-width="2" stroke-miterlimit="10" d="
	M227.788,310.481c0,0,27-6,30-6"/>
<line fill-rule="evenodd" clip-rule="evenodd" fill="none" stroke="#000000" stroke-width="2" stroke-miterlimit="10" x1="402.788" y1="209.481" x2="434.788" y2="184.481"/>
<line fill-rule="evenodd" clip-rule="evenodd" fill="none" stroke="#000000" stroke-width="2" stroke-miterlimit="10" x1="407.788" y1="198.481" x2="448.788" y2="161.481"/>
<path fill-rule="evenodd" clip-rule="evenodd" fill="none" stroke="#000000" stroke-width="2" stroke-miterlimit="10" d="
	M560.788,95.481c0,0,52-34,59-37"/>
<line fill-rule="evenodd" clip-rule="evenodd" fill="none" stroke="#000000" stroke-width="2" stroke-miterlimit="10" x1="548.788" y1="89.481" x2="580.788" y2="67.481"/>
<path fill-rule="evenodd" clip-rule="evenodd" fill="none" stroke="#333333" stroke-width="2" stroke-miterlimit="10" d="
	M128.788,293.481c0,0,21,5,27,5"/>
<line fill-rule="evenodd" clip-rule="evenodd" fill="none" stroke="#000000" stroke-width="2" stroke-miterlimit="10" x1="443.788" y1="144.481" x2="463.788" y2="161.481"/>
<path fill-rule="evenodd" clip-rule="evenodd" fill="none" stroke="#000000" stroke-width="2" stroke-miterlimit="10" d="
	M482.788,180.481c0,0,53,46,62,48"/>
<g>
	<path fill-rule="evenodd" clip-rule="evenodd" fill="none" stroke="#0071BC" stroke-width="2" stroke-miterlimit="10" d="
		M241.788,297.481c0,0,51-19,56-21"/>
	<path fill-rule="evenodd" clip-rule="evenodd" fill="none" stroke="#0071BC" stroke-width="2" stroke-miterlimit="10" d="
		M164.788,298.481c0,0,36,1,45-3"/>
	<path fill-rule="evenodd" clip-rule="evenodd" fill="none" stroke="#0071BC" stroke-width="2" stroke-miterlimit="10" d="
		M361.788,233.481c0,0,31-23,35-27"/>
	<path fill-rule="evenodd" clip-rule="evenodd" fill="none" stroke="#0071BC" stroke-width="2" stroke-miterlimit="10" d="
		M382.788,235.481c0,0,46-38,50-41"/>
	<path fill-rule="evenodd" clip-rule="evenodd" fill="none" stroke="#0071BC" stroke-width="2" stroke-miterlimit="10" d="
		M567.788,67.481c0,0,55-35,72-39"/>
	<path fill-rule="evenodd" clip-rule="evenodd" fill="none" stroke="#0071BC" stroke-width="2" stroke-miterlimit="10" d="
		M38.788,218.481c0,0,22,40,39,49"/>
	<path fill-rule="evenodd" clip-rule="evenodd" fill="none" stroke="#0071BC" stroke-width="2" stroke-miterlimit="10" d="
		M33.788,125.481c0,0,14-43,46-63"/>
	<path fill-rule="evenodd" clip-rule="evenodd" fill="none" stroke="#0071BC" stroke-width="2" stroke-miterlimit="10" d="
		M906.788,121.481c0,0,13,25,2,67"/>
	<path fill-rule="evenodd" clip-rule="evenodd" fill="none" stroke="#0071BC" stroke-width="2" stroke-miterlimit="10" d="
		M805.788,302.481c0,0,43-12,69-37"/>
</g>
<g>
	<path fill-rule="evenodd" clip-rule="evenodd" fill="none" stroke="#ED1E79" stroke-width="2" stroke-miterlimit="10" d="
		M267.788,281.481c0,0,64-24,84-44"/>
	<path fill-rule="evenodd" clip-rule="evenodd" fill="none" stroke="#ED1E79" stroke-width="2" stroke-miterlimit="10" d="
		M278.788,290.481c0,0,40-15,47-21"/>
	<path fill-rule="evenodd" clip-rule="evenodd" fill="none" stroke="#ED1E79" stroke-width="2" stroke-miterlimit="10" d="
		M143.788,301.481c0,0,48,12,53,10"/>

		<line fill-rule="evenodd" clip-rule="evenodd" fill="none" stroke="#ED1E79" stroke-width="2" stroke-miterlimit="10" x1="401.788" y1="229.481" x2="451.788" y2="191.481"/>
	<path fill-rule="evenodd" clip-rule="evenodd" fill="none" stroke="#ED1E79" stroke-width="2" stroke-miterlimit="10" d="
		M472.788,140.481c0,0,47-40,52-43"/>
	<path fill-rule="evenodd" clip-rule="evenodd" fill="none" stroke="#ED1E79" stroke-width="2" stroke-miterlimit="10" d="
		M659.788,31.481c0,0,48-15,59-16"/>
	<path fill-rule="evenodd" clip-rule="evenodd" fill="none" stroke="#ED1E79" stroke-width="2" stroke-miterlimit="10" d="
		M50.788,249.481c0,0,33,32,42,32"/>
	<path fill-rule="evenodd" clip-rule="evenodd" fill="none" stroke="#ED1E79" stroke-width="2" stroke-miterlimit="10" d="
		M19.788,192.481c0,0-6.8-43.886,2-64"/>
	<path fill-rule="evenodd" clip-rule="evenodd" fill="none" stroke="#ED1E79" stroke-width="2" stroke-miterlimit="10" d="
		M60.788,62.481c0,0,23-28,87-43"/>
	<path fill-rule="evenodd" clip-rule="evenodd" fill="none" stroke="#ED1E79" stroke-width="2" stroke-miterlimit="10" d="
		M901.788,214.481c0,0-24,37-55,58"/>
	<path fill-rule="evenodd" clip-rule="evenodd" fill="none" stroke="#ED1E79" stroke-width="2" stroke-miterlimit="10" d="
		M919.788,150.481c0,0-6-41-29-63"/>
</g>
<g>
	<path fill-rule="evenodd" clip-rule="evenodd" fill="none" stroke="#808080" stroke-width="2" stroke-miterlimit="10" d="
		M350.788,264.481c0,0,37-24,43-29"/>
	<path fill-rule="evenodd" clip-rule="evenodd" fill="none" stroke="#808080" stroke-width="2" stroke-miterlimit="10" d="
		M217.788,294.481c0,0,35-6,39-9"/>
	<path fill-rule="evenodd" clip-rule="evenodd" fill="none" stroke="#808080" stroke-width="2" stroke-miterlimit="10" d="
		M441.788,188.481c0,0,36-32,41-39"/>
	<path fill-rule="evenodd" clip-rule="evenodd" fill="none" stroke="#808080" stroke-width="2" stroke-miterlimit="10" d="
		M33.788,211.481c0,0-12.738-41.238-5-66"/>
	<path fill-rule="evenodd" clip-rule="evenodd" fill="none" stroke="#808080" stroke-width="2" stroke-miterlimit="10" d="
		M698.788,13.481c0,0,20-7,46-5"/>
	<path fill-rule="evenodd" clip-rule="evenodd" fill="none" stroke="#808080" stroke-width="2" stroke-miterlimit="10" d="
		M905.788,158.481c0,0,2,38-25,70"/>
	<path fill-rule="evenodd" clip-rule="evenodd" fill="none" stroke="#808080" stroke-width="2" stroke-miterlimit="10" d="
		M835.788,280.481c0,0-23,15-65,20"/>
</g>
<g>
	<path fill-rule="evenodd" clip-rule="evenodd" fill="none" stroke="#754C24" stroke-width="2" stroke-miterlimit="10" d="
		M205.788,308.481c0,0,48-5,61-13"/>
	<path fill-rule="evenodd" clip-rule="evenodd" fill="none" stroke="#754C24" stroke-width="2" stroke-miterlimit="10" d="
		M331.788,268.481c0,0,37-21,43-27"/>
	<path fill-rule="evenodd" clip-rule="evenodd" fill="none" stroke="#754C24" stroke-width="2" stroke-miterlimit="10" d="
		M356.788,244.481c0,0,31-22,35-26"/>
	<path fill-rule="evenodd" clip-rule="evenodd" fill="none" stroke="#754C24" stroke-width="2" stroke-miterlimit="10" d="
		M504.788,132.481c0,0,32-32,35-32"/>
	<path fill-rule="evenodd" clip-rule="evenodd" fill="none" stroke="#754C24" stroke-width="2" stroke-miterlimit="10" d="
		M762.788,11.481c0,0,60,13,78,28"/>
	<path fill-rule="evenodd" clip-rule="evenodd" fill="none" stroke="#754C24" stroke-width="2" stroke-miterlimit="10" d="
		M97.788,282.481c0,0,27,15,32,15"/>
	<path fill-rule="evenodd" clip-rule="evenodd" fill="none" stroke="#754C24" stroke-width="2" stroke-miterlimit="10" d="
		M18.788,202.481c0,0,18,31,25,39"/>
	<path fill-rule="evenodd" clip-rule="evenodd" fill="none" stroke="#754C24" stroke-width="2" stroke-miterlimit="10" d="
		M19.788,116.481c0,0,6.459-23.02,21.729-39.51"/>
	<path fill-rule="evenodd" clip-rule="evenodd" fill="none" stroke="#754C24" stroke-width="2" stroke-miterlimit="10" d="
		M923.788,168.481c0,0-7,45-30,74"/>
	<path fill-rule="evenodd" clip-rule="evenodd" fill="none" stroke="#754C24" stroke-width="2" stroke-miterlimit="10" d="
		M859.788,250.481c0,0-26,26-59,38"/>
</g>
<path fill-rule="evenodd" clip-rule="evenodd" fill="none" stroke="#000000" stroke-width="2" stroke-miterlimit="10" d="
	M886.788,244.481c0,0-14,19-17,19"/>
</svg>
