<?xml version="1.0" encoding="utf-8"?>
<!-- Generator: Adobe Illustrator 16.0.0, SVG Export Plug-In . SVG Version: 6.00 Build 0)  -->
<!DOCTYPE svg PUBLIC "-//W3C//DTD SVG 1.1//EN" "http://www.w3.org/Graphics/SVG/1.1/DTD/svg11.dtd">
<svg version="1.1" id="Layer_1" xmlns="http://www.w3.org/2000/svg" xmlns:xlink="http://www.w3.org/1999/xlink" x="0px" y="0px"
	 width="959.718px" height="417.168px" viewBox="0 0 959.718 417.168" enable-background="new 0 0 959.718 417.168"
	 xml:space="preserve">
<g>
	<path fill="none" stroke="#231F20" stroke-width="1.2" stroke-miterlimit="10" d="M211.795,366.693l-4.948,2.066
		c0,0,3.108,2.971,2.685,5.23c-0.423,2.262-1.413,5.086,0.848,10.313c2.26,5.229-3.391,3.956-3.391,3.956l-1.414,1.132l-6.641-5.795
		c0,0-4.662-4.238-4.662-8.759l-3.391-3.393l-5.793,0.283l-2.685,3.531l1.131,5.654l-0.99,1.271l2.261,6.783l1.311,5.864"/>
	<path fill="none" stroke="#231F20" stroke-width="1.2" stroke-miterlimit="10" d="M143.141,399.056l-2.217-5.91l-0.739-17.732
		l-3.694-23.642l-0.739-7.388l11.82-8.867h24.383c0,0,13.298,0.74,16.253,4.434c2.956,3.692,9.605,22.165,12.561,22.165
		c0,0,3.958,1.559,4.099,3.819l6.762,0.825"/>
	<path fill="none" stroke="#231F20" stroke-width="1.2" stroke-miterlimit="10" d="M147.218,397.443l-1.554-5.51
		c0,0-1.697-4.38,0.564-7.064l-0.141-12.858l1.836-6.5c0,0,6.783,2.685,4.805,11.587c0,0-0.706,6.074,0.989,7.49
		c1.695,1.412,3.391,10.032,3.391,10.032l0.99,2.966"/>
	<path fill="none" stroke="#231F20" stroke-width="1.2" stroke-miterlimit="10" d="M163.609,399.141c0,0-5.228-13.566-4.804-16.674
		c0.424-3.108,2.542-10.738,2.542-10.738l10.315-1.414c0,0,4.804,3.533,4.38,6.219c-0.424,2.684-0.847,10.031-0.847,10.031
		l-1.837,7.207"/>
	<polyline fill="none" stroke="#231F20" stroke-width="1.2" stroke-miterlimit="10" points="178.163,395.042 178.445,387.412
		179.435,382.891 180.706,392.074 	"/>
	<path fill="none" stroke="#231F20" stroke-width="1.2" stroke-miterlimit="10" d="M143.686,338.806l-2.402,2.402
		c0,0-0.283,30.237,0.707,33.205c0,0-0.848,6.356-0.424,8.194l1.696-5.792l1.13-33.064l2.261-3.674"/>

		<line fill="none" stroke="#231F20" stroke-width="1.2" stroke-miterlimit="10" x1="205.011" y1="385.718" x2="206.988" y2="388.26"/>
	<polyline fill="none" stroke="#231F20" stroke-width="1.2" stroke-miterlimit="10" points="206.705,374.694 208.401,375.828
		208.684,375.118 	"/>
</g>
<path fill="none" stroke="#231F20" stroke-width="1.2" stroke-miterlimit="10" d="M97.832,390.043c0,0-3.538-7.664-3.538-9.728
	c0-2.064,1.621-11.202,1.621-11.202s2.064-7.813,2.506-8.402l5.307,4.275l17.244-0.589l3.095,0.884l-1.326,9.727l-0.589,6.044
	l-1.142,13.78"/>
<polyline fill="none" stroke="#231F20" stroke-width="1.2" stroke-miterlimit="10" points="125.005,394.341 124.805,381.642
	127.9,376.041 130.111,370.883 131.88,379.578 136.356,391.576 "/>
<polyline fill="none" stroke="#231F20" stroke-width="1.2" stroke-miterlimit="10" points="139.611,391.11 135.27,379.137
	135.712,375.156 135.123,370.293 138.79,367.94 "/>
<polyline fill="none" stroke="#231F20" stroke-width="1.2" stroke-miterlimit="10" points="94.146,391.518 85.893,372.65
	88.251,362.039 82.061,346.269 "/>
<polyline fill="none" stroke="#231F20" stroke-width="1.2" stroke-miterlimit="10" points="77.262,391.01 78.522,380.462
	87.707,364.312 "/>
<path fill="none" stroke="#231F20" stroke-width="1.2" stroke-miterlimit="10" d="M74.042,391.576l0.944-22.609l2.063-3.686
	l1.179-26.53c0,0,2.212-7.96,8.549-8.255l7.812-0.738l11.202,2.508h12.971l10.76,0.884c0,0,13.118,1.328,14.15,3.685"/>
<path fill="none" stroke="#231F20" stroke-width="1.2" stroke-miterlimit="10" d="M86.63,333.592c0,0-5.16-0.147-5.16,5.01
	c0,5.159-1.916,17.542-1.916,19.898c0,2.359-0.736,9.14-0.736,9.14l-3.917,6.395"/>
<line fill="none" stroke="#231F20" stroke-width="1.2" stroke-miterlimit="10" x1="146.837" y1="369.301" x2="152.873" y2="375.93"/>
<line fill="none" stroke="#231F20" stroke-width="1.2" stroke-miterlimit="10" x1="167.255" y1="370.9" x2="173.82" y2="391.434"/>
<g>
	<g>
		<path fill="none" stroke="#231F20" stroke-width="1.2" stroke-miterlimit="10" d="M81.152,332.399l-2.604,0.724l0.434-3.761
			l-1.591,0.868c-0.579-1.013-9.258,0.145-9.258,0.145l-2.748-0.723l1.157,4.485c0,0-7.522-4.194-7.087-0.29
			c0.434,3.905,6.798,4.195,6.798,4.195l0.723,5.207l0.724,2.604c0,0,2.604,1.879,3.761,1.879c1.158,0,5.8,9.743,5.8,9.743"/>

			<line fill="none" stroke="#231F20" stroke-width="1.2" stroke-miterlimit="10" x1="66.976" y1="337.464" x2="67.988" y2="338.043"/>

			<line fill="none" stroke="#231F20" stroke-width="1.2" stroke-miterlimit="10" x1="75.366" y1="338.188" x2="76.523" y2="337.32"/>
		<polyline fill="none" stroke="#231F20" stroke-width="1.2" stroke-miterlimit="10" points="82.556,373.697 83.033,376.953
			83.178,383.174 		"/>

			<line fill="none" stroke="#231F20" stroke-width="1.2" stroke-miterlimit="10" x1="85.781" y1="381.729" x2="86.794" y2="374.641"/>
	</g>

		<line fill="none" stroke="#231F20" stroke-width="1.2" stroke-miterlimit="10" x1="118.626" y1="364.493" x2="122.741" y2="375.008"/>
</g>
<g>
	<path fill="none" stroke="#231F20" stroke-width="1.2" stroke-miterlimit="10" d="M232.319,382.979l-2.804-7.267v-4.845
		l-3.314-18.737c-2.804-15.298,0.382-14.406,1.147-16.318c0.765-1.913,11.473-2.804,11.473-2.804l23.328-0.383
		c5.991-1.274,8.032,2.038,8.032,2.038l13.767,26.772l2.677-5.865c4.208,2.039,0.255,8.797,0.255,8.797s1.529,3.186,0.892,4.97
		c-0.637,1.787-1.401,2.423-2.039,6.757c-0.638,4.335,0.127,4.081,0.127,4.081s-1.593,5.057-5.854,2.927"/>
	<path fill="none" stroke="#231F20" stroke-width="1.2" stroke-miterlimit="10" d="M232.575,393.432l0.255-10.709l0.892-10.326
		l2.805-6.5c0,0-7.012-18.993-6.501-22.564"/>
	<polyline fill="none" stroke="#231F20" stroke-width="1.2" stroke-miterlimit="10" points="237.037,392.666 236.399,389.097
		240.606,373.926 246.98,366.662 259.345,364.62 265.209,370.357 264.954,387.693 	"/>
	<path fill="none" stroke="#231F20" stroke-width="1.2" stroke-miterlimit="10" d="M268.396,385.399l1.529-6.883l1.658-7.522
		l3.186-1.273c0,0-1.02,5.607,2.167,8.668c3.187,3.059,3.452,5.055,3.452,5.055"/>
	<path fill="none" stroke="#231F20" stroke-width="1.2" stroke-miterlimit="10" d="M269.648,334.271l-0.742,1.413l-1.657-0.384
		l-2.295,0.256l-4.207-0.256l-2.04,0.639l-5.864-1.53l-1.402,0.511l0.637,1.02c0,0-3.315-0.383-3.315-0.766S248,336.831,248,336.831
		l1.147,4.335l-1.658,0.382l-1.529-3.06l-4.845-1.02l-2.294-0.128l-3.124-3.868"/>
	<polyline fill="none" stroke="#231F20" stroke-width="1.2" stroke-miterlimit="10" points="267.505,384.125 268.523,377.625
		266.994,374.819 267.25,370.613 270.818,365.77 269.544,364.109 270.436,359.777 268.269,360.033 267.377,357.737 265.209,361.436
		261.767,362.454 260.876,361.18 261.385,359.649 258.454,358.884 257.816,357.355 255.904,358.63 254.119,356.846 253.227,353.785
		250.932,353.912 250.167,348.686 246.088,353.021 245.833,358.63 244.686,359.904 244.559,362.327 246.98,366.662 	"/>
	<polyline fill="none" stroke="#231F20" stroke-width="1.2" stroke-miterlimit="10" points="276.173,368.956 279.232,371.633
		281.144,366.662 282.164,366.151 282.929,367.172 286.88,364.367 	"/>
	<polyline fill="none" stroke="#231F20" stroke-width="1.2" stroke-miterlimit="10" points="280.889,378.771 281.526,376.477
		280.635,375.455 281.91,373.545 283.438,369.21 286.753,366.788 	"/>
	<polyline fill="none" stroke="#231F20" stroke-width="1.2" stroke-miterlimit="10" points="274.975,374.212 276.428,374.437
		278.259,379.805 	"/>
	<path fill="none" stroke="#231F20" stroke-width="1.2" stroke-miterlimit="10" d="M255.268,365.641c0,0,3.441,8.797,3.441,10.453
		c0,1.658-3.314,9.434-3.314,9.434"/>
	<path fill="none" stroke="#231F20" stroke-width="1.2" stroke-miterlimit="10" d="M262.151,367.299l1.529,6.117
		c0,0-2.422,4.336-2.422,4.846c0,0.509,0.127,5.991,0.127,5.991"/>
</g>
<path fill="none" stroke="#231F20" stroke-width="1.2" stroke-miterlimit="10" d="M278.88,350.867l1.883-2.308l1.275,1.528
	c0,0,4.845-8.413,4.079-10.198c-0.764-1.783,3.314-3.696,3.314-3.696s18.484-0.893,23.711,0.256
	c5.227,1.146,3.173,14.798,3.046,15.691"/>
<polyline fill="none" stroke="#231F20" stroke-width="1.2" stroke-miterlimit="10" points="316.188,341.399 313.908,351.236
	315.947,357.609 315.31,361.18 "/>
<polyline fill="none" stroke="#231F20" stroke-width="1.2" stroke-miterlimit="10" points="292.363,360.797 293.511,352.256
	301.925,353.148 303.964,351.874 308.171,356.336 305.622,362.327 "/>
<polyline fill="none" stroke="#231F20" stroke-width="1.2" stroke-miterlimit="10" points="307.789,362.327 312.123,354.933
	309.446,350.727 "/>
<line fill="none" stroke="#231F20" stroke-width="1.2" stroke-miterlimit="10" x1="312.105" y1="355.277" x2="312.633" y2="362.327"/>
<polyline fill="none" stroke="#231F20" stroke-width="1.2" stroke-miterlimit="10" points="285.99,355.188 287.137,352.766
	289.177,353.785 290.453,361.69 "/>
<polyline fill="none" stroke="#231F20" stroke-width="1.2" stroke-miterlimit="10" points="298.112,335.93 294.149,337.979
	292.236,340.656 290.453,342.313 293.129,347.922 295.678,351.619 296.826,351.363 296.826,349.961 298.228,351.108
	298.865,342.949 301.033,339.508 301.16,338.106 301.542,337.341 301.218,335.869 "/>
<polyline fill="none" stroke="#231F20" stroke-width="1.2" stroke-miterlimit="10" points="314.561,347.76 313.27,344.861
	310.465,348.942 307.534,347.54 307.151,345.884 305.366,346.902 302.563,344.733 302.308,342.824 301.798,340.783 304.857,338.872
	307.151,342.186 309.956,341.932 311.741,339.763 312.123,338.872 315.597,338.913 "/>
<polyline fill="none" stroke="#231F20" stroke-width="1.2" stroke-miterlimit="10" points="340.285,345.84 338.522,339.525
	340.873,333.354 344.986,332.473 348.217,337.613 346.602,342.168 346.16,345.695 "/>
<line fill="none" stroke="#231F20" stroke-width="1.2" stroke-miterlimit="10" x1="344.544" y1="334.529" x2="344.544" y2="344.223"/>
<line fill="none" stroke="#231F20" stroke-width="1.2" stroke-miterlimit="10" x1="341.46" y1="340.992" x2="343.223" y2="345.987"/>
<path fill="none" stroke="#231F20" stroke-width="1.2" stroke-miterlimit="10" d="M276.812,340.146l0.638-2.677l1.02-1.529
	c0,0-1.02-4.974-1.53-5.227c-0.509-0.256-4.461-0.129-4.461-0.129l-2.297,4.079"/>
<line fill="none" stroke="#231F20" stroke-width="1.2" stroke-miterlimit="10" x1="272.987" y1="337.469" x2="274.134" y2="340.018"/>
<line fill="none" stroke="#231F20" stroke-width="1.2" stroke-miterlimit="10" x1="275.155" y1="333.391" x2="275.537" y2="336.703"/>
<path fill="none" stroke="#231F20" stroke-width="1.2" stroke-miterlimit="10" d="M293.111,335.867c0,0-0.237-4.644,1.292-6.047
	c1.53-1.403,6.5-0.765,6.5-0.765l2.04,4.079l1.054,2.612"/>
<path fill="none" stroke="#231F20" stroke-width="1.2" stroke-miterlimit="10" d="M295.678,330.202c0,0-0.892,4.206-0.382,4.589"/>
<path fill="none" stroke="#414042" stroke-width="1.2" stroke-miterlimit="10" d="M530.482,394.037c0,0-0.356-9.791,0.712-12.105
	c1.067-2.314,2.847-14.598,2.847-14.598s10.859-3.205,12.641-2.848c1.781,0.355,21.008-0.178,24.033,0.355
	c3.026,0.533,15.846-3.74,16.557-5.875l6.943,0.713c0,0-0.714,16.734-1.426,19.049s-5.513,13.844-5.513,13.844"/>
<path fill="none" stroke="#231F20" stroke-width="1.2" stroke-miterlimit="10" d="M596.356,392.928l5.691-16.514
	c0,0,0.533-3.738,1.958-3.738s0.179-10.326,0.179-10.326"/>
<path fill="none" stroke="#603913" stroke-width="1.2" stroke-miterlimit="10" d="M607.388,394.215c0,0,2.671-5.34,2.493-5.873
	c-0.178-0.535,1.422-11.928,1.067-13.352c-0.354-1.426-10.324-21.008-15.131-25.637c-4.808-4.629-5.341-9.613-5.341-9.613"/>
<path fill="none" stroke="#603913" stroke-width="1.2" stroke-miterlimit="10" d="M506.982,319.445c0,0,4.45-4.984,7.477,0
	c0,0-1.779,6.053-7.298,4.271"/>
<path fill="none" stroke="#231F20" stroke-width="1.2" stroke-miterlimit="10" d="M494.166,342.232l-0.179-2.137l-1.424-0.178
	v-1.047l1.225-0.254c1.245,0,0.909-1.902,0.909-1.902h-6.052c0,0-0.354,4.805,0.355,4.629"/>
<polyline fill="none" stroke="#EE2A7B" stroke-width="1.2" stroke-miterlimit="10" points="546.682,364.486 548.106,371.961
	547.75,380.508 551.488,393.859 "/>
<polyline fill="none" stroke="#EE2A7B" stroke-width="1.2" stroke-miterlimit="10" points="537.602,366.623 543.478,381.576
	545.08,394.572 "/>
<path fill="none" stroke="#231F20" stroke-width="1.2" stroke-miterlimit="10" d="M499.684,325.32c0,0,2.136-1.959,4.45-1.604"/>
<path fill="none" stroke="#231F20" stroke-width="1.2" stroke-miterlimit="10" d="M490.249,324.785c0,0,1.602,0.715,1.602,1.426"/>
<path fill="#231F20" d="M500.751,324.963c0,0,0.89-0.354,1.604-0.889"/>
<path fill="none" stroke="#EE2A7B" stroke-width="1.2" stroke-miterlimit="10" d="M549.038,323.283c0,0-5.628,8.232-3.75,13
	c3.485,8.85,6.721,7.193,6.721,7.193s-1.7,9.357,7.827,11.061c0,0,6.373-2.973,6.202-4.504l6.387,2.121l4.252-3.232l3.233-5.445
	l0.128-4.443l3-2l0.104-4.613c0,0-1.36-7.996-5.272-8.166l0.51-6.295l-1.872-5.783"/>
<path fill="none" stroke="#EE2A7B" stroke-width="1.2" stroke-miterlimit="10" d="M550.139,312.516c0,0-5.785,0.852-5.785,2.893
	s-0.597,5.443,0.935,6.125c1.531,0.678,3.313,2.313,3.313,2.313"/>
<path fill="none" stroke="#1C75BC" stroke-width="1.2" stroke-miterlimit="10" d="M582.972,309.793c0,0-2.211,5.613,5.274,11.229
	c0,0,4.594,5.445,6.635,5.275c2.042-0.17,2.042-0.17,2.042-0.17l3.062-3.744l1.361-4.084c0,0-2.212-4.592-4.934-4.932
	c-2.722-0.342-5.936-2.645-5.936-2.645"/>
<path fill="none" stroke="#1C75BC" stroke-width="1.2" stroke-miterlimit="10" d="M516.121,358.951
	c0.483-1.225,1.352-7.818,1.352-7.818s0.511-2.041,3.573,0.512c3.063,2.551,5.954,1.189,5.954,1.189s4.764-3.742,4.253-7.314
	s-0.511-9.867-3.403-9.188c-2.892,0.68-2.381-6.125-2.381-6.125l-3.232-2.721c0,0,1.191-7.145-0.341-7.314
	c-1.531-0.17-4.252-1.701-4.252-1.701l-2.724-2.723"/>
<path fill="none" stroke="#939598" stroke-width="1.2" stroke-miterlimit="10" d="M506.585,343.309l-1.531-2.043l1.871-2.381v-4.594
	l-7.996,5.104c0,0-2.722-4.934-3.232-4.934c-0.51,0,0.675-5.01,1.873-9.697c0,0,3.975-6.777,5.386-8.48
	c1.237-1.492-4.366-5.299-4.366-5.299"/>
<line fill="none" stroke="#231F20" stroke-miterlimit="10" x1="736.288" y1="172.369" x2="741.038" y2="161.537"/>
<polyline fill="none" stroke="#231F20" stroke-miterlimit="10" points="742.705,157.369 756.638,131.867 751.643,129.596
	811.133,1.987 844.738,9.707 838.835,23.331 818.854,64.656 782.069,137.316 780.253,141.402 763.905,135.953 751.188,161.838 "/>
<polyline fill="none" stroke="#231F20" stroke-miterlimit="10" points="748.464,165.472 746.193,170.467 747.556,172.737
	745.121,176.202 "/>
<polygon fill="none" stroke="#231F20" stroke-miterlimit="10" points="741.277,156.717 752.746,162.824 750.884,166.174
	739.49,160.441 "/>
<polyline fill="none" stroke="#231F20" stroke-miterlimit="10" points="817.413,3.721 757.757,127.721 778.193,136.444
	782.538,127.721 "/>
<line fill="none" stroke="#231F20" stroke-miterlimit="10" x1="783.677" y1="124.979" x2="787.038" y2="118.283"/>
<line fill="none" stroke="#231F20" stroke-miterlimit="10" x1="788.662" y1="114.014" x2="790.904" y2="108.779"/>
<line fill="none" stroke="#231F20" stroke-miterlimit="10" x1="793.896" y1="104.791" x2="798.788" y2="94.408"/>
<line fill="none" stroke="#231F20" stroke-miterlimit="10" x1="800.874" y1="89.838" x2="805.646" y2="80.828"/>
<line fill="none" stroke="#231F20" stroke-miterlimit="10" x1="807.288" y1="77.158" x2="813.288" y2="65.283"/>
<line fill="none" stroke="#231F20" stroke-miterlimit="10" x1="815.08" y1="61.424" x2="819.601" y2="52.221"/>
<line fill="none" stroke="#231F20" stroke-miterlimit="10" x1="822.059" y1="48.465" x2="827.101" y2="38.283"/>
<line fill="none" stroke="#231F20" stroke-miterlimit="10" x1="829.121" y1="35.036" x2="833.772" y2="24.538"/>
<line fill="none" stroke="#231F20" stroke-miterlimit="10" x1="836.266" y1="21.049" x2="840.625" y2="11.939"/>
<polyline fill="none" stroke="#231F20" stroke-miterlimit="10" points="843.407,12.41 820.813,9.086 817.324,18.058 "/>
<polyline fill="none" stroke="#231F20" stroke-miterlimit="10" points="763.488,116.755 785.671,125.478 783.926,128.22
	761.993,119.496 "/>
<polyline fill="none" stroke="#231F20" stroke-miterlimit="10" points="768.225,106.037 790.904,115.259 788.662,118.748
	766.979,109.776 "/>
<polyline fill="none" stroke="#231F20" stroke-miterlimit="10" points="771.413,100.033 792.649,109.028 795.391,106.037
	772.96,96.816 "/>
<polyline fill="none" stroke="#231F20" stroke-miterlimit="10" points="777.695,87.096 800.376,94.822 802.12,90.336 779.44,83.357
	"/>
<polyline fill="none" stroke="#231F20" stroke-miterlimit="10" points="784.288,73.096 807.853,81.363 809.598,78.123
	785.92,70.148 "/>
<polyline fill="none" stroke="#231F20" stroke-miterlimit="10" points="790.904,59.432 815.579,65.911 817.324,62.172
	791.902,55.941 "/>
<polyline fill="none" stroke="#231F20" stroke-miterlimit="10" points="797.385,45.475 821.81,52.453 823.804,49.461
	799.413,42.033 "/>
<polyline fill="none" stroke="#231F20" stroke-miterlimit="10" points="803.117,33.261 830.035,38.744 831.53,35.504
	805.226,29.721 "/>
<polyline fill="none" stroke="#231F20" stroke-miterlimit="10" points="809.348,19.803 835.518,25.036 837.761,21.796
	810.594,17.061 "/>
<line fill="none" stroke="#231F20" stroke-miterlimit="10" x1="815.726" y1="21.283" x2="811.788" y2="31.283"/>
<line fill="none" stroke="#231F20" stroke-miterlimit="10" x1="809.598" y1="35.006" x2="804.976" y2="43.408"/>
<line fill="none" stroke="#231F20" stroke-miterlimit="10" x1="803.366" y1="47.717" x2="798.631" y2="57.188"/>
<line fill="none" stroke="#231F20" stroke-miterlimit="10" x1="796.139" y1="61.175" x2="790.976" y2="71.471"/>
<polyline fill="none" stroke="#231F20" stroke-miterlimit="10" points="789.908,75.382 791.902,80.865 787.914,86.1 "/>
<line fill="none" stroke="#231F20" stroke-miterlimit="10" x1="785.663" y1="89.971" x2="781.683" y2="100.305"/>
<polyline fill="none" stroke="#231F20" stroke-miterlimit="10" points="779.191,103.545 777.944,106.537 778.941,110.025 "/>
<line fill="none" stroke="#231F20" stroke-miterlimit="10" x1="774.601" y1="113.158" x2="772.038" y2="119.721"/>
<line fill="none" stroke="#231F20" stroke-miterlimit="10" x1="769.72" y1="123.234" x2="766.23" y2="130.712"/>
<line fill="none" stroke="#231F20" stroke-miterlimit="10" x1="768.724" y1="132.456" x2="772.461" y2="124.232"/>
<line fill="none" stroke="#231F20" stroke-miterlimit="10" x1="774.455" y1="121.241" x2="777.944" y2="114.761"/>
<line fill="none" stroke="#231F20" stroke-miterlimit="10" x1="780.188" y1="110.524" x2="782.431" y2="105.04"/>
<line fill="none" stroke="#231F20" stroke-miterlimit="10" x1="784.176" y1="101.053" x2="789.16" y2="91.333"/>
<line fill="none" stroke="#231F20" stroke-miterlimit="10" x1="791.413" y1="86.658" x2="795.89" y2="77.376"/>
<line fill="none" stroke="#231F20" stroke-miterlimit="10" x1="796.851" y1="73.596" x2="802.369" y2="62.92"/>
<line fill="none" stroke="#231F20" stroke-miterlimit="10" x1="804.538" y1="58.783" x2="809.598" y2="48.964"/>
<line fill="none" stroke="#231F20" stroke-miterlimit="10" x1="811.976" y1="45.596" x2="816.163" y2="36.158"/>
<line fill="none" stroke="#231F20" stroke-miterlimit="10" x1="818.32" y1="32.513" x2="823.305" y2="22.793"/>
<line fill="none" stroke="#231F20" stroke-miterlimit="10" x1="824.8" y1="19.305" x2="828.539" y2="10.58"/>
<line fill="none" stroke="#231F20" stroke-miterlimit="10" x1="776.698" y1="122.238" x2="780.288" y2="115.658"/>
<line fill="none" stroke="#231F20" stroke-miterlimit="10" x1="782.68" y1="112.019" x2="785.172" y2="106.037"/>
<line fill="none" stroke="#231F20" stroke-miterlimit="10" x1="786.916" y1="102.05" x2="792.399" y2="92.578"/>
<line fill="none" stroke="#231F20" stroke-miterlimit="10" x1="794.394" y1="87.844" x2="798.631" y2="78.372"/>
<line fill="none" stroke="#231F20" stroke-miterlimit="10" x1="799.877" y1="74.386" x2="806.101" y2="63.533"/>
<line fill="none" stroke="#231F20" stroke-miterlimit="10" x1="807.853" y1="59.93" x2="812.976" y2="50.158"/>
<line fill="none" stroke="#231F20" stroke-miterlimit="10" x1="814.831" y1="46.222" x2="819.413" y2="36.846"/>
<line fill="none" stroke="#231F20" stroke-miterlimit="10" x1="821.413" y1="33.033" x2="826.545" y2="23.541"/>
<line fill="none" stroke="#231F20" stroke-miterlimit="10" x1="828.041" y1="19.803" x2="832.776" y2="10.58"/>
<polyline fill="none" stroke="#231F20" stroke-miterlimit="10" points="819.815,3.602 821.063,0.611 824.303,1.608 823.804,4.6 "/>
<line fill="none" stroke="#231F20" stroke-miterlimit="10" x1="774.476" y1="128.658" x2="774.455" y2="134.949"/>
<polyline fill="none" stroke="#231F20" stroke-miterlimit="10" points="774.455,139.934 775.203,146.912 777.944,146.414
	777.726,140.471 "/>
<polyline fill="none" stroke="#231F20" stroke-miterlimit="10" points="778.193,136.444 775.951,125.976 771.215,133.203 "/>
<path fill="none" stroke="#231F20" stroke-miterlimit="10" d="M778.692,143.174c0,0,14.206-13.708,19.19-32.649l11.715-22.432
	l5.981-14.206c0,0,10.468-17.695,8.225-18.443"/>
<path fill="none" stroke="#231F20" stroke-miterlimit="10" d="M723.362,180.061c0,0,2.991-9.471,5.731-9.471
	c2.742,0,5.982,2.99,4.986,4.984c-0.998,1.993-4.238,8.225-4.238,8.225L723.362,180.061z"/>
<line fill="none" stroke="#231F20" stroke-miterlimit="10" x1="734.538" y1="174.952" x2="746.791" y2="180.061"/>
<path fill="none" stroke="#231F20" stroke-miterlimit="10" d="M732.833,171.338c0,0,13.708,4.984,14.705,6.729"/>
<polyline fill="none" stroke="#231F20" stroke-miterlimit="10" points="765.288,147.533 793.147,198.005 789.658,199.002
	764.486,152.395 751.027,180.559 770.717,190.528 "/>
<line fill="none" stroke="#231F20" stroke-miterlimit="10" x1="733.83" y1="216.697" x2="746.541" y2="192.023"/>
<path fill="none" stroke="#231F20" stroke-miterlimit="10" d="M768.225,186.789l1.495-21.434c-0.748-0.499-11.963,3.24-11.963,3.24
	l1.994,14.954"/>
<path fill="none" stroke="#231F20" stroke-miterlimit="10" d="M730.341,170.34c0,0-51.343-33.398-52.838-33.398
	s-1.495,2.742-1.495,2.742l50.113,32.852"/>
<polyline fill="none" stroke="#231F20" stroke-miterlimit="10" points="678.5,136.693 692.208,117.503 737.319,142.177
	744.049,142.177 744.547,144.918 735.325,148.656 724.857,166.602 "/>
<polyline fill="none" stroke="#231F20" stroke-miterlimit="10" points="679.746,138.189 691.46,121.988 693.953,123.234 "/>
<polyline fill="none" stroke="#231F20" stroke-miterlimit="10" points="681.491,139.435 695.448,121.49 697.192,123.234
	683.235,140.432 "/>
<polyline fill="none" stroke="#231F20" stroke-miterlimit="10" points="686.476,141.429 699.686,123.733 700.931,124.73
	687.723,142.426 "/>
<polyline fill="none" stroke="#231F20" stroke-miterlimit="10" points="689.218,144.17 703.174,125.727 704.67,126.724
	691.46,145.167 "/>
<polyline fill="none" stroke="#231F20" stroke-miterlimit="10" points="694.701,147.41 708.408,128.718 709.903,129.466
	696.693,147.909 "/>
<polyline fill="none" stroke="#231F20" stroke-miterlimit="10" points="699.187,150.152 713.643,131.211 715.138,131.959
	701.43,151.398 "/>
<polyline fill="none" stroke="#231F20" stroke-miterlimit="10" points="704.171,153.143 718.377,133.203 719.873,133.951
	705.667,153.891 "/>
<polyline fill="none" stroke="#231F20" stroke-miterlimit="10" points="708.907,156.383 722.614,135.945 724.608,136.941
	711.149,157.379 "/>
<polyline fill="none" stroke="#231F20" stroke-miterlimit="10" points="713.643,158.875 726.603,138.688 728.347,139.934
	715.886,159.872 "/>
<polyline fill="none" stroke="#231F20" stroke-miterlimit="10" points="717.879,162.115 731.338,140.93 732.833,141.429
	719.375,162.863 "/>
<polyline fill="none" stroke="#231F20" stroke-miterlimit="10" points="722.863,165.105 737.319,142.177 738.565,142.925
	737.319,145.167 741.806,143.423 "/>
<path fill="none" stroke="#231F20" stroke-miterlimit="10" d="M684.481,132.207"/>
<path fill="none" stroke="#231F20" stroke-miterlimit="10" d="M684.481,132.207"/>
<line fill="none" stroke="#231F20" stroke-miterlimit="10" x1="684.836" y1="131.688" x2="686.161" y2="132.6"/>
<line fill="none" stroke="#231F20" stroke-miterlimit="10" x1="688.397" y1="133.843" x2="690.55" y2="135.25"/>
<line fill="none" stroke="#231F20" stroke-miterlimit="10" x1="692.371" y1="136.658" x2="694.11" y2="136.989"/>
<line fill="none" stroke="#231F20" stroke-miterlimit="10" x1="696.43" y1="138.729" x2="698.997" y2="140.136"/>
<line fill="none" stroke="#231F20" stroke-miterlimit="10" x1="701.397" y1="141.543" x2="704.296" y2="143.117"/>
<line fill="none" stroke="#231F20" stroke-miterlimit="10" x1="707.028" y1="144.524" x2="709.182" y2="145.768"/>
<line fill="none" stroke="#231F20" stroke-miterlimit="10" x1="710.756" y1="146.926" x2="713.902" y2="148.913"/>
<line fill="none" stroke="#231F20" stroke-miterlimit="10" x1="715.889" y1="150.486" x2="717.96" y2="151.645"/>
<line fill="none" stroke="#231F20" stroke-miterlimit="10" x1="720.775" y1="152.971" x2="722.68" y2="153.964"/>
<line fill="none" stroke="#231F20" stroke-miterlimit="10" x1="724.584" y1="155.124" x2="727.648" y2="156.78"/>
<line fill="none" stroke="#231F20" stroke-miterlimit="10" x1="686.575" y1="129.039" x2="687.899" y2="129.867"/>
<line fill="none" stroke="#231F20" stroke-miterlimit="10" x1="690.799" y1="131.605" x2="692.371" y2="132.436"/>
<line fill="none" stroke="#231F20" stroke-miterlimit="10" x1="694.359" y1="134.009" x2="695.933" y2="135.25"/>
<line fill="none" stroke="#231F20" stroke-miterlimit="10" x1="698.168" y1="136.327" x2="700.735" y2="138.064"/>
<line fill="none" stroke="#231F20" stroke-miterlimit="10" x1="702.973" y1="139.225" x2="705.952" y2="140.963"/>
<line fill="none" stroke="#231F20" stroke-miterlimit="10" x1="708.685" y1="142.123" x2="710.921" y2="143.944"/>
<line fill="none" stroke="#231F20" stroke-miterlimit="10" x1="712.329" y1="144.773" x2="715.145" y2="146.346"/>
<line fill="none" stroke="#231F20" stroke-miterlimit="10" x1="717.629" y1="147.838" x2="719.615" y2="149.162"/>
<line fill="none" stroke="#231F20" stroke-miterlimit="10" x1="721.935" y1="150.402" x2="724.088" y2="151.314"/>
<line fill="none" stroke="#231F20" stroke-miterlimit="10" x1="726.49" y1="152.143" x2="729.223" y2="154.047"/>
<polyline fill="none" stroke="#231F20" stroke-miterlimit="10" points="675.727,139.805 671.422,146.014 717.131,175.162
	720.941,169.366 "/>
<line fill="none" stroke="#231F20" stroke-miterlimit="10" x1="674.236" y1="141.46" x2="719.615" y2="171.354"/>
<path fill="none" stroke="#231F20" stroke-miterlimit="10" d="M737.254,157.855"/>
<line fill="none" stroke="#231F20" stroke-miterlimit="10" x1="696.381" y1="124.271" x2="698.265" y2="124.85"/>
<line fill="none" stroke="#231F20" stroke-miterlimit="10" x1="700.148" y1="126.227" x2="701.888" y2="127.314"/>
<line fill="none" stroke="#231F20" stroke-miterlimit="10" x1="703.844" y1="128.111" x2="707.468" y2="130.141"/>
<line fill="none" stroke="#231F20" stroke-miterlimit="10" x1="709.134" y1="130.792" x2="712.396" y2="132.169"/>
<line fill="none" stroke="#231F20" stroke-miterlimit="10" x1="714.353" y1="133.473" x2="717.105" y2="135.139"/>
<line fill="none" stroke="#231F20" stroke-miterlimit="10" x1="718.916" y1="136.082" x2="721.453" y2="137.387"/>
<line fill="none" stroke="#231F20" stroke-miterlimit="10" x1="723.845" y1="138.473" x2="725.801" y2="140.14"/>
<line fill="none" stroke="#231F20" stroke-miterlimit="10" x1="728.409" y1="141.082" x2="730.221" y2="141.734"/>
<line fill="none" stroke="#231F20" stroke-miterlimit="10" x1="732.25" y1="142.894" x2="735.365" y2="144.487"/>
<polyline fill="none" stroke="#231F20" stroke-miterlimit="10" points="659.788,327.535 651.832,314.646 653.328,312.902
	661.303,324.615 "/>
<polyline fill="none" stroke="#231F20" stroke-miterlimit="10" points="665.291,316.391 658.063,303.182 659.808,299.941
	666.788,313.369 "/>
<polyline fill="none" stroke="#231F20" stroke-miterlimit="10" points="671.121,304.701 663.546,292.963 664.792,289.473
	672.788,301.951 "/>
<polyline fill="none" stroke="#231F20" stroke-miterlimit="10" points="676.507,293.213 669.278,281.498 670.275,278.258
	677.752,290.719 "/>
<polyline fill="none" stroke="#231F20" stroke-miterlimit="10" points="683.538,280.203 675.26,267.791 677.004,265.547
	684.871,277.119 "/>
<polyline fill="none" stroke="#231F20" stroke-miterlimit="10" points="689.205,268.703 680.743,256.076 682.238,252.088
	691.038,264.869 "/>
<polyline fill="none" stroke="#231F20" stroke-miterlimit="10" points="695.538,255.453 686.476,244.113 688.22,241.371
	697.121,252.619 "/>
<polyline fill="none" stroke="#231F20" stroke-miterlimit="10" points="700.038,246.951 691.709,234.641 692.707,232.398
	701.455,244.367 "/>
<polyline fill="none" stroke="#231F20" stroke-miterlimit="10" points="704.42,237.883 695.198,227.166 696.445,224.922
	705.621,235.285 "/>
<line fill="none" stroke="#231F20" stroke-miterlimit="10" x1="649.34" y1="322.373" x2="652.371" y2="316.285"/>
<line fill="none" stroke="#231F20" stroke-miterlimit="10" x1="653.328" y1="312.902" x2="658.288" y2="304.285"/>
<line fill="none" stroke="#231F20" stroke-miterlimit="10" x1="660.288" y1="300.619" x2="663.705" y2="293.785"/>
<line fill="none" stroke="#231F20" stroke-miterlimit="10" x1="665.371" y1="290.203" x2="669.278" y2="281.498"/>
<line fill="none" stroke="#231F20" stroke-miterlimit="10" x1="670.275" y1="278.258" x2="675.26" y2="267.791"/>
<line fill="none" stroke="#231F20" stroke-miterlimit="10" x1="677.004" y1="265.547" x2="681.121" y2="257.203"/>
<line fill="none" stroke="#231F20" stroke-miterlimit="10" x1="682.986" y1="253.334" x2="686.725" y2="245.109"/>
<line fill="none" stroke="#231F20" stroke-miterlimit="10" x1="688.22" y1="241.371" x2="691.959" y2="235.889"/>
<line fill="none" stroke="#231F20" stroke-miterlimit="10" x1="693.205" y1="232.619" x2="695.697" y2="228.412"/>
<polyline fill="none" stroke="#231F20" stroke-miterlimit="10" points="697.288,225.617 699.187,220.436 705.418,207.477
	707.162,207.477 705.418,218.441 710.9,223.178 725.356,195.513 723.113,193.768 725.107,191.524 727.102,191.275 730.871,184.618
	"/>
<line fill="none" stroke="#231F20" stroke-miterlimit="10" x1="652.58" y1="328.354" x2="656.205" y2="322.285"/>
<line fill="none" stroke="#231F20" stroke-miterlimit="10" x1="653.871" y1="329.951" x2="657.288" y2="323.951"/>
<line fill="none" stroke="#231F20" stroke-miterlimit="10" x1="657.813" y1="319.381" x2="661.553" y2="310.16"/>
<line fill="none" stroke="#231F20" stroke-miterlimit="10" x1="659.06" y1="320.877" x2="663.121" y2="312.703"/>
<line fill="none" stroke="#231F20" stroke-miterlimit="10" x1="663.546" y1="307.168" x2="666.786" y2="298.445"/>
<line fill="none" stroke="#231F20" stroke-miterlimit="10" x1="664.621" y1="309.119" x2="668.281" y2="300.689"/>
<line fill="none" stroke="#231F20" stroke-miterlimit="10" x1="668.871" y1="295.619" x2="672.768" y2="288.229"/>
<line fill="none" stroke="#231F20" stroke-miterlimit="10" x1="670.025" y1="297.697" x2="673.765" y2="289.973"/>
<line fill="none" stroke="#231F20" stroke-miterlimit="10" x1="674.264" y1="284.986" x2="678.998" y2="274.021"/>
<line fill="none" stroke="#231F20" stroke-miterlimit="10" x1="675.509" y1="286.732" x2="680.245" y2="275.518"/>
<line fill="none" stroke="#231F20" stroke-miterlimit="10" x1="680.494" y1="271.029" x2="684.73" y2="262.557"/>
<line fill="none" stroke="#231F20" stroke-miterlimit="10" x1="681.74" y1="272.525" x2="685.977" y2="264.301"/>
<line fill="none" stroke="#231F20" stroke-miterlimit="10" x1="686.975" y1="259.066" x2="690.962" y2="249.346"/>
<line fill="none" stroke="#231F20" stroke-miterlimit="10" x1="688.22" y1="260.813" x2="692.457" y2="251.84"/>
<line fill="none" stroke="#231F20" stroke-miterlimit="10" x1="692.707" y1="247.104" x2="695.705" y2="241.201"/>
<line fill="none" stroke="#231F20" stroke-miterlimit="10" x1="694.121" y1="248.119" x2="696.788" y2="243.035"/>
<line fill="none" stroke="#231F20" stroke-miterlimit="10" x1="697.192" y1="237.633" x2="699.788" y2="232.867"/>
<line fill="none" stroke="#231F20" stroke-miterlimit="10" x1="698.189" y1="239.129" x2="701.038" y2="234.533"/>
<line fill="none" stroke="#231F20" stroke-miterlimit="10" x1="701.679" y1="230.156" x2="705.538" y2="222.783"/>
<line fill="none" stroke="#231F20" stroke-miterlimit="10" x1="702.871" y1="231.701" x2="706.871" y2="224.867"/>
<line fill="none" stroke="#231F20" stroke-miterlimit="10" x1="749.013" y1="189.07" x2="768.041" y2="200.031"/>
<line fill="none" stroke="#231F20" stroke-miterlimit="10" x1="769.488" y1="195.482" x2="858.215" y2="251.943"/>
<line fill="none" stroke="#231F20" stroke-miterlimit="10" x1="768.661" y1="196.517" x2="756.045" y2="233.949"/>
<polyline fill="none" stroke="#231F20" stroke-miterlimit="10" points="770.938,197.55 760.595,231.055 764.524,234.156 "/>
<line fill="none" stroke="#231F20" stroke-miterlimit="10" x1="757.079" y1="233.742" x2="763.697" y2="237.881"/>
<line fill="none" stroke="#231F20" stroke-miterlimit="10" x1="764.731" y1="219.059" x2="769.488" y2="222.369"/>
<line fill="none" stroke="#231F20" stroke-miterlimit="10" x1="765.766" y1="216.164" x2="770.938" y2="219.059"/>
<path fill="none" stroke="#231F20" stroke-miterlimit="10" d="M776.728,201.273"/>
<polyline fill="none" stroke="#231F20" stroke-miterlimit="10" points="776.728,201.273 763.077,239.949 764.731,240.775
	778.796,203.342 "/>
<polyline fill="none" stroke="#231F20" stroke-miterlimit="10" points="782.519,205.408 769.075,241.604 770.938,243.463
	784.793,207.27 "/>
<polyline fill="none" stroke="#231F20" stroke-miterlimit="10" points="788.516,207.891 774.659,245.945 776.106,247.809
	791.411,209.338 "/>
<polyline fill="none" stroke="#231F20" stroke-miterlimit="10" points="797.409,213.889 782.725,251.529 784.586,253.598
	800.513,215.543 "/>
<polyline fill="none" stroke="#231F20" stroke-miterlimit="10" points="806.303,219.68 791.205,258.355 793.272,260.836
	808.785,221.129 "/>
<polyline fill="none" stroke="#231F20" stroke-miterlimit="10" points="815.816,225.471 800.099,266.213 802.786,267.869
	818.298,226.506 "/>
<polyline fill="none" stroke="#231F20" stroke-miterlimit="10" points="825.744,231.262 808.991,273.66 811.06,275.313
	828.019,233.33 "/>
<polyline fill="none" stroke="#231F20" stroke-miterlimit="10" points="835.672,238.086 818.712,280.484 820.78,282.553
	837.946,239.535 "/>
<polyline fill="none" stroke="#231F20" stroke-miterlimit="10" points="845.186,244.291 828.226,288.344 830.707,290.205
	847.46,245.326 "/>
<polyline fill="none" stroke="#231F20" stroke-miterlimit="10" points="854.538,253.658 838.98,295.582 841.669,296.41
	862.144,243.672 772.385,188.243 768.661,195.482 752.322,184.313 "/>
<path fill="#FFFFFF" stroke="#231F20" stroke-miterlimit="10" d="M772.797,204.375c0,0,44.674,42.191,82.108,49.016l-0.827,1.035
	c-36.401-6.205-82.729-48.189-82.729-48.189L772.797,204.375z"/>
<line fill="none" stroke="#231F20" stroke-miterlimit="10" x1="771.35" y1="223.816" x2="774.245" y2="225.678"/>
<line fill="none" stroke="#231F20" stroke-miterlimit="10" x1="777.142" y1="227.125" x2="780.451" y2="229.4"/>
<line fill="none" stroke="#231F20" stroke-miterlimit="10" x1="782.933" y1="231.469" x2="788.723" y2="236.02"/>
<line fill="none" stroke="#231F20" stroke-miterlimit="10" x1="791.205" y1="237.672" x2="797.203" y2="241.604"/>
<line fill="none" stroke="#231F20" stroke-miterlimit="10" x1="800.099" y1="243.672" x2="806.717" y2="248.842"/>
<line fill="none" stroke="#231F20" stroke-miterlimit="10" x1="809.404" y1="250.496" x2="815.609" y2="255.666"/>
<line fill="none" stroke="#231F20" stroke-miterlimit="10" x1="818.712" y1="257.113" x2="825.744" y2="262.49"/>
<line fill="none" stroke="#231F20" stroke-miterlimit="10" x1="828.019" y1="264.354" x2="835.465" y2="269.73"/>
<line fill="none" stroke="#231F20" stroke-miterlimit="10" x1="837.946" y1="271.385" x2="845.806" y2="277.383"/>
<line fill="none" stroke="#231F20" stroke-miterlimit="10" x1="847.253" y1="273.453" x2="838.98" y2="268.076"/>
<line fill="none" stroke="#231F20" stroke-miterlimit="10" x1="836.498" y1="266.213" x2="829.88" y2="261.457"/>
<line fill="none" stroke="#231F20" stroke-miterlimit="10" x1="826.777" y1="259.389" x2="819.953" y2="254.012"/>
<line fill="none" stroke="#231F20" stroke-miterlimit="10" x1="817.264" y1="252.15" x2="810.646" y2="247.6"/>
<line fill="none" stroke="#231F20" stroke-miterlimit="10" x1="807.75" y1="245.326" x2="801.132" y2="240.568"/>
<line fill="none" stroke="#231F20" stroke-miterlimit="10" x1="798.65" y1="239.121" x2="792.859" y2="234.57"/>
<line fill="none" stroke="#231F20" stroke-miterlimit="10" x1="789.551" y1="233.123" x2="784.38" y2="228.158"/>
<line fill="none" stroke="#231F20" stroke-miterlimit="10" x1="781.691" y1="226.506" x2="778.796" y2="224.436"/>
<line fill="none" stroke="#231F20" stroke-miterlimit="10" x1="775.693" y1="222.781" x2="772.591" y2="220.92"/>
<line fill="none" stroke="#231F20" stroke-miterlimit="10" x1="789.137" y1="214.922" x2="795.134" y2="218.645"/>
<line fill="none" stroke="#231F20" stroke-miterlimit="10" x1="798.856" y1="220.506" x2="804.441" y2="224.643"/>
<line fill="none" stroke="#231F20" stroke-miterlimit="10" x1="807.131" y1="226.711" x2="813.335" y2="230.848"/>
<line fill="none" stroke="#231F20" stroke-miterlimit="10" x1="816.437" y1="232.709" x2="823.038" y2="236.908"/>
<line fill="none" stroke="#231F20" stroke-miterlimit="10" x1="825.95" y1="238.914" x2="833.163" y2="243.533"/>
<line fill="none" stroke="#231F20" stroke-miterlimit="10" x1="835.672" y1="245.533" x2="843.116" y2="248.635"/>
<line fill="none" stroke="#231F20" stroke-miterlimit="10" x1="767.006" y1="235.811" x2="770.109" y2="237.881"/>
<line fill="none" stroke="#231F20" stroke-miterlimit="10" x1="772.385" y1="239.535" x2="775.9" y2="242.844"/>
<line fill="none" stroke="#231F20" stroke-miterlimit="10" x1="777.762" y1="244.291" x2="783.966" y2="248.428"/>
<line fill="none" stroke="#231F20" stroke-miterlimit="10" x1="785.828" y1="250.289" x2="792.032" y2="254.426"/>
<line fill="none" stroke="#231F20" stroke-miterlimit="10" x1="794.721" y1="257.322" x2="801.132" y2="262.078"/>
<line fill="none" stroke="#231F20" stroke-miterlimit="10" x1="804.441" y1="265.387" x2="810.232" y2="269.316"/>
<line fill="none" stroke="#231F20" stroke-miterlimit="10" x1="813.127" y1="271.799" x2="819.953" y2="277.59"/>
<line fill="none" stroke="#231F20" stroke-miterlimit="10" x1="822.227" y1="279.037" x2="829.88" y2="284.621"/>
<line fill="none" stroke="#231F20" stroke-miterlimit="10" x1="832.362" y1="287.104" x2="840.015" y2="292.273"/>
<line fill="none" stroke="#231F20" stroke-miterlimit="10" x1="765.766" y1="239.121" x2="769.038" y2="241.033"/>
<line fill="none" stroke="#231F20" stroke-miterlimit="10" x1="771.557" y1="242.223" x2="775.163" y2="245.283"/>
<line fill="none" stroke="#231F20" stroke-miterlimit="10" x1="777.142" y1="246.566" x2="783.139" y2="250.703"/>
<line fill="none" stroke="#231F20" stroke-miterlimit="10" x1="785.207" y1="252.15" x2="791.618" y2="256.908"/>
<line fill="none" stroke="#231F20" stroke-miterlimit="10" x1="794.1" y1="259.182" x2="800.719" y2="264.146"/>
<line fill="none" stroke="#231F20" stroke-miterlimit="10" x1="803.613" y1="267.248" x2="810.025" y2="271.592"/>
<line fill="none" stroke="#231F20" stroke-miterlimit="10" x1="812.301" y1="273.865" x2="818.918" y2="279.451"/>
<line fill="none" stroke="#231F20" stroke-miterlimit="10" x1="821.814" y1="281.313" x2="828.846" y2="286.896"/>
<line fill="none" stroke="#231F20" stroke-miterlimit="10" x1="831.121" y1="289.172" x2="839.188" y2="294.342"/>
<line fill="none" stroke="#231F20" stroke-miterlimit="10" x1="734.205" y1="216.867" x2="765.413" y2="205.283"/>
<polyline fill="none" stroke="#231F20" stroke-miterlimit="10" points="764.163,209.408 747.288,223.428 730.84,215.701
	744.547,190.528 741.806,190.777 741.308,189.033 729.842,183.799 "/>
<path fill="none" stroke="#231F20" stroke-miterlimit="10" d="M747.288,223.428l-17.509,82.914l-16.752,78.189
	c0,0,160.904-1.863,166.282,0.205l1.241,6.412l-4.963,2.068c-4.136-3.309-161.527,0.828-161.527,0.828l-2.818-0.207l1.785-9.307"/>
<polyline fill="none" stroke="#231F20" stroke-miterlimit="10" points="879.31,384.736 860.075,249.879 959.375,343.348 "/>
<polyline fill="none" stroke="#231F20" stroke-miterlimit="10" points="718.609,384.527 730.193,328.686 739.707,328.479
	727.918,383.906 "/>
<line fill="none" stroke="#231F20" stroke-miterlimit="10" x1="730.193" y1="330.961" x2="738.538" y2="330.908"/>
<line fill="none" stroke="#231F20" stroke-miterlimit="10" x1="729.572" y1="332.615" x2="738.259" y2="332.615"/>
<line fill="none" stroke="#231F20" stroke-miterlimit="10" x1="729.447" y1="334.688" x2="738.134" y2="334.688"/>
<line fill="none" stroke="#231F20" stroke-miterlimit="10" x1="728.331" y1="336.131" x2="737.663" y2="336.283"/>
<line fill="none" stroke="#231F20" stroke-miterlimit="10" x1="728.331" y1="337.992" x2="737.018" y2="337.992"/>
<line fill="none" stroke="#231F20" stroke-miterlimit="10" x1="728.125" y1="339.854" x2="736.812" y2="339.854"/>
<line fill="none" stroke="#231F20" stroke-miterlimit="10" x1="727.918" y1="341.508" x2="736.604" y2="341.508"/>
<line fill="none" stroke="#231F20" stroke-miterlimit="10" x1="727.712" y1="342.75" x2="736.397" y2="342.75"/>
<line fill="none" stroke="#231F20" stroke-miterlimit="10" x1="727.505" y1="344.197" x2="736.19" y2="344.197"/>
<line fill="none" stroke="#231F20" stroke-miterlimit="10" x1="727.091" y1="345.852" x2="735.777" y2="345.852"/>
<line fill="none" stroke="#231F20" stroke-miterlimit="10" x1="726.663" y1="347.658" x2="735.777" y2="347.713"/>
<line fill="none" stroke="#231F20" stroke-miterlimit="10" x1="726.471" y1="349.576" x2="735.157" y2="349.576"/>
<line fill="none" stroke="#231F20" stroke-miterlimit="10" x1="725.933" y1="351.27" x2="734.618" y2="351.27"/>
<line fill="none" stroke="#231F20" stroke-miterlimit="10" x1="725.437" y1="352.799" x2="734.123" y2="352.799"/>
<line fill="none" stroke="#231F20" stroke-miterlimit="10" x1="725.023" y1="354.578" x2="733.709" y2="354.578"/>
<line fill="none" stroke="#231F20" stroke-miterlimit="10" x1="724.402" y1="356.135" x2="733.367" y2="356.129"/>
<line fill="none" stroke="#231F20" stroke-miterlimit="10" x1="724.402" y1="357.961" x2="733.089" y2="357.961"/>
<line fill="none" stroke="#231F20" stroke-miterlimit="10" x1="723.988" y1="359.711" x2="732.675" y2="359.711"/>
<line fill="none" stroke="#231F20" stroke-miterlimit="10" x1="723.575" y1="361.777" x2="732.261" y2="361.777"/>
<line fill="none" stroke="#231F20" stroke-miterlimit="10" x1="723.161" y1="364.055" x2="731.848" y2="364.055"/>
<line fill="none" stroke="#231F20" stroke-miterlimit="10" x1="722.747" y1="365.701" x2="731.434" y2="365.701"/>
<line fill="none" stroke="#231F20" stroke-miterlimit="10" x1="722.333" y1="367.355" x2="731.02" y2="367.355"/>
<line fill="none" stroke="#231F20" stroke-miterlimit="10" x1="722.231" y1="368.908" x2="730.917" y2="368.908"/>
<line fill="none" stroke="#231F20" stroke-miterlimit="10" x1="721.716" y1="370.668" x2="730.403" y2="370.668"/>
<line fill="none" stroke="#231F20" stroke-miterlimit="10" x1="721.299" y1="372.326" x2="729.985" y2="372.326"/>
<line fill="none" stroke="#231F20" stroke-miterlimit="10" x1="720.886" y1="373.98" x2="729.571" y2="373.98"/>
<line fill="none" stroke="#231F20" stroke-miterlimit="10" x1="720.679" y1="375.43" x2="729.365" y2="375.43"/>
<line fill="none" stroke="#231F20" stroke-miterlimit="10" x1="720.473" y1="376.977" x2="729.159" y2="376.977"/>
<line fill="none" stroke="#231F20" stroke-miterlimit="10" x1="720.059" y1="378.531" x2="728.745" y2="378.531"/>
<line fill="none" stroke="#231F20" stroke-miterlimit="10" x1="719.852" y1="379.979" x2="728.538" y2="379.979"/>
<line fill="none" stroke="#231F20" stroke-miterlimit="10" x1="719.645" y1="381.641" x2="728.33" y2="381.641"/>
<line fill="none" stroke="#231F20" stroke-miterlimit="10" x1="719.438" y1="383.254" x2="728.124" y2="383.254"/>
<line fill="none" stroke="#231F20" stroke-miterlimit="10" x1="802.413" y1="267.783" x2="800.788" y2="383.533"/>
<line fill="none" stroke="#231F20" stroke-miterlimit="10" x1="851.663" y1="271.283" x2="866.788" y2="383.658"/>
<line fill="none" stroke="#231F20" stroke-miterlimit="10" x1="757.92" y1="241.018" x2="740.905" y2="384.525"/>
<path fill="none" stroke="#231F20" stroke-miterlimit="10" d="M748.784,179.063l16.2-31.901c0,0,44.613,16.45,51.342,21.185
	l20.688,10.468l34.085,46.669l-15.534-11.836l-62.417-15.642"/>
<polyline fill="none" stroke="#231F20" stroke-miterlimit="10" points="871.788,226.283 860.003,230.66 958.849,333.205 "/>
<line fill="none" stroke="#231F20" stroke-miterlimit="10" x1="650.545" y1="324.391" x2="653.634" y2="318.408"/>
<line fill="none" stroke="#231F20" stroke-miterlimit="10" x1="655.177" y1="315.512" x2="659.705" y2="306.285"/>
<line fill="none" stroke="#231F20" stroke-miterlimit="10" x1="661.354" y1="302.773" x2="664.829" y2="295.438"/>
<line fill="none" stroke="#231F20" stroke-miterlimit="10" x1="666.566" y1="292.156" x2="670.455" y2="283.785"/>
<line fill="none" stroke="#231F20" stroke-miterlimit="10" x1="671.777" y1="280.574" x2="676.409" y2="270.344"/>
<line fill="none" stroke="#231F20" stroke-miterlimit="10" x1="678.727" y1="267.449" x2="682.395" y2="259.342"/>
<polyline fill="none" stroke="#231F20" stroke-miterlimit="10" points="698.608,226.521 702.676,218.691 709.654,228.162
	656.318,335.084 649.34,322.373 647.097,325.861 655.819,345.801 687.723,279.006 691.46,278.508 705.418,250.842 731.836,199.002
	734.578,200.248 735.575,197.257 734.329,196.261 735.076,193.519 737.568,193.27 739.705,188.535 "/>
<line fill="none" stroke="#231F20" stroke-miterlimit="10" x1="694.371" y1="234.535" x2="697.371" y2="230.035"/>
<line fill="none" stroke="#231F20" stroke-miterlimit="10" x1="684.518" y1="254.895" x2="688.288" y2="246.951"/>
<line fill="none" stroke="#231F20" stroke-miterlimit="10" x1="690.121" y1="243.119" x2="693.371" y2="237.785"/>
<line fill="none" stroke="#231F20" stroke-miterlimit="10" x1="768.538" y1="152.908" x2="827.663" y2="174.408"/>
<line fill="none" stroke="#231F20" stroke-miterlimit="10" x1="770.788" y1="157.533" x2="838.163" y2="180.408"/>
<line fill="none" stroke="#231F20" stroke-miterlimit="10" x1="773.663" y1="162.783" x2="840.163" y2="183.283"/>
<line fill="none" stroke="#231F20" stroke-miterlimit="10" x1="777.038" y1="168.908" x2="842.038" y2="185.908"/>
<line fill="none" stroke="#231F20" stroke-miterlimit="10" x1="780.163" y1="174.158" x2="844.489" y2="189.033"/>
<line fill="none" stroke="#231F20" stroke-miterlimit="10" x1="782.68" y1="178.564" x2="848.478" y2="194.018"/>
<line fill="none" stroke="#231F20" stroke-miterlimit="10" x1="785.288" y1="183.783" x2="849.974" y2="197.008"/>
<line fill="none" stroke="#231F20" stroke-miterlimit="10" x1="788.038" y1="188.158" x2="852.466" y2="200.496"/>
<line fill="none" stroke="#231F20" stroke-miterlimit="10" x1="790.288" y1="193.158" x2="856.038" y2="205.408"/>
<line fill="none" stroke="#231F20" stroke-miterlimit="10" x1="852.466" y1="207.477" x2="859.288" y2="209.658"/>
<line fill="none" stroke="#231F20" stroke-miterlimit="10" x1="854.958" y1="211.961" x2="864.429" y2="216.447"/>
<line fill="none" stroke="#231F20" stroke-miterlimit="10" x1="842.913" y1="210.658" x2="847.663" y2="234.783"/>
<line fill="none" stroke="#231F20" stroke-miterlimit="10" x1="802.12" y1="246.355" x2="802.12" y2="258.318"/>
<path fill="none" stroke="#603913" stroke-width="1.2" stroke-miterlimit="10" d="M614.152,393.859c0,0,1.068-3.203,2.136-2.492
	c1.069,0.713,0.18-10.324,0.18-10.324l0.533-8.367l1.781-7.656c0,0-3.382-7.299-4.273-8.012c-0.89-0.711-2.492-12.816-0.356-17.445
	s4.273-13.174,4.096-14.953l0.178-3.027c0,0,2.314,6.232,2.137,30.262l-0.891,23.146l1.958,8.9l1.602-6.41l1.603-16.021l-1.78-3.738
	l-0.355-32.4c0,0,0.355-12.105-10.682-14.953c0,0-21.185-0.355-21.54,0.355c-0.356,0.711-5.164-2.492-9.435,0
	c-4.273,2.492-37.743,1.602-47.357,0.711c-9.612-0.891-14.953,3.027-14.953,3.027l-4.629,1.246h-7.833l-3.737-3.916
	c0,0-6.23-1.424-6.587-0.357l-4.808,5.342c0,0-7.655-2.492-11.037,0.355c-3.381,2.85,7.121,7.479,8.9,4.451
	c0,0,3.205,9.969,0.892,11.748c-2.314,1.781-2.671,7.479-0.892,8.014c1.782,0.533,5.165,0.889,5.165,0.889l6.051-1.066l2.671-1.248
	l3.382,3.916c0,0,2.85,2.137,6.943,12.818l2.492,2.137c0,0,4.984,8.189,8.901,9.611c0,0,0.357,13.176,1.425,14.422
	c1.067,1.248-3.561,13.529-3.561,13.529"/>
<path fill-rule="evenodd" clip-rule="evenodd" fill="#009245" d="M0,415.898c1.597-4.168,3.418-8.283,4.653-12.537
	c0.363-1.254-0.936-2.902-1.608-4.742c1.021,1.082,1.835,1.943,2.641,2.799c0.188-0.051,0.383-0.051,0.468-0.137
	c3.666-3.695,3.696-3.711,1.121-8.123c-0.967-1.656-2.116-3.225-3.184-4.834c0.157-0.111,0.313-0.223,0.47-0.332
	c2.372,2.85,4.744,5.701,7.117,8.551c-1.153-3.953-3.907-7.012-6.889-9.945c0.187-0.162,0.373-0.326,0.559-0.488
	c2.707,2.521,5.403,5.055,8.132,7.557c0.529,0.484,1.191,0.85,2.058,1.453c-0.012,0.059-0.145,0.736-0.389,1.973
	c2.224-1.742,3.882-3.041,6.005-4.703c-1.568,3.137-5.827,4.619-3.971,8.373c4.218-1.129,8.338-2.23,12.456-3.332
	c-1.674,0.645-3.407,1.186-4.984,1.979c-0.644,0.324-1.391,1.232-1.338,1.818c0.326,3.613,0.868,7.209,1.335,10.787
	c1.818-4.857,3.619-9.674,5.408-14.459c0.277,0.037-0.108-0.014-0.493-0.066c1.686-1.09,3.305-2.281,5.076-3.244
	c1.705-0.926,1.786-2.049,0.961-3.443c-1.741-2.947-3.498-5.883-5.261-8.818c-0.246-0.41-0.563-0.787-0.688-1.271
	c5.023,4.086,8.818,8.895,10.785,15.309c0.965-1.424,1.717-2.533,2.647-3.906c-0.28,2.762-3.106,4.697-1.643,7.598
	c2.732-1.893,5.35-3.709,8.428-5.842c-3.106-1.365-5.464-2.402-7.823-3.438c0.05-0.123,0.098-0.246,0.147-0.369
	c2.437,0.84,4.874,1.678,7.303,2.516c0.992-2.037,0.206-5.146-2.976-13.455c1.822,3.09,3.643,6.18,5.463,9.27
	c0.086-0.094,0.173-0.188,0.258-0.283c0.283,1.58,0.565,3.158,0.962,5.369c1.97-1.779,3.525-3.096,4.925-4.535
	c0.248-0.256-0.004-1.1-0.275-1.549c-1.19-1.967-2.471-3.889-3.35-6.17c1.051,1.061,2.111,2.115,3.151,3.184
	c0.996,1.023,1.972,2.063,3.289,2.713c1.554,4.279,3.107,8.559,4.741,13.061c1.371-0.629,3.039-1.168,4.356-2.109
	c0.512-0.367,0.632-1.855,0.236-2.463c-1.129-1.73-2.615-3.271-3.704-5.197c1.547,1.156,3.095,2.314,4.615,3.449
	c1.368-3.576,2.409-7.297,4.197-10.697c1.812-3.443,4.363-6.566,6.991-9.658c-3.973,7.09-7.315,14.279-7.146,22.523
	c0.803-0.115,1.558-0.225,2.31-0.332c-0.273,0.154-0.569,0.277-0.803,0.465c-0.599,0.48-1.17,0.99-1.752,1.488
	c0.91,0.246,1.809,0.551,2.738,0.707c0.307,0.053,0.691-0.271,1.384-0.574c-0.598-0.75-1.116-1.4-1.633-2.051
	c-0.155-0.877-0.308-1.754-0.508-2.893c0.68,0.854,1.203,1.51,1.646,2.064c2.365-5.131,4.714-10.232,7.065-15.334
	c0.122,0.053,0.243,0.107,0.366,0.162c-1.343,4.998-2.685,9.994-4.028,14.992c0.292,0.094,0.583,0.188,0.873,0.283
	c0.612-0.816,1.225-1.631,1.596-2.125c0.178,2.375,0.374,4.988,0.607,8.104c2.784-1.834,7.293-0.783,7.46-5.297
	c0.135,0.455,0.27,0.908,0.457,1.539c0.682-0.4,1.314-0.771,2.238-1.313c-1.486-1.791-2.901-3.494-4.316-5.199
	c0.093-0.105,0.186-0.209,0.279-0.314c1.652,1.268,3.304,2.533,4.923,3.773c1.428-3.256,2.948-6.49,4.216-9.803
	c0.284-0.738-0.321-1.758-0.542-2.76c0.421,0.412,0.805,0.787,1.339,1.309c0.81-1.23,1.566-2.379,2.365-3.594
	c0.119,0.211,0.25,0.352,0.217,0.402c-1.929,2.871-1.744,5.541,0.21,8.477c1.468,2.205,2.156,4.836,3.254,7.422
	c0.666-0.818,1.376-1.691,2.086-2.563c-0.131,0.482-0.13,1.041-0.413,1.434c-2.267,3.154-1.278,6.611-1.395,10.4
	c1.247-1.676,1.929-3.414,3.286-4.221c2.035-1.211,1.563-2.49,0.88-3.859c-0.646-1.295-1.611-2.461-2.436-3.686
	c-0.559-1.428-1.118-2.855-1.677-4.283c0.141-0.094,0.281-0.189,0.422-0.283c2.252,2.928,4.506,5.855,6.81,8.85
	c3.042-0.777,5.55-3.6,4.342-7.047c-1.297-3.705-2.305-7.492-3.569-11.67c2.252,4.006,4.315,7.674,6.403,11.332
	c0.001,0.002,0.382-0.174,0.537-0.244c-0.075,1.088-0.153,2.219-0.265,3.838c2.335-0.912,4.133-1.613,6.149-2.4
	c-0.735-1.023-1.376-1.916-2.017-2.809c0.039-0.043,0.079-0.086,0.118-0.129c0.894,0.926,1.788,1.852,2.74,2.836
	c2.164-1.709,3.898-3.08,5.816-4.596c-1.394-1.988-2.76-3.939-4.127-5.889c0.101-0.092,0.203-0.182,0.304-0.273
	c1.862,1.936,3.819,3.803,5.549,5.83c1.178,1.377,1.692,3.377,3.121,4.379c1.873,1.311,4.356,1.908,6.571,2.822
	c0.609,0.25,1.202,0.537,1.774,0.793c3.434-3.008-0.216-4.791-1.502-7.244c1.333,0.748,2.666,1.498,4.167,2.342
	c0.405-0.52,0.937-1.199,1.469-1.879c-1.526,2.275-0.378,3.836,1.381,5.551c1.438,1.4,2.342,3.25,3.656,5.152
	c1.669-6.494,5.789-11.416,11.293-15.514c-1.344,1.813-2.687,3.623-4.029,5.434c0.088,0.092,0.177,0.184,0.265,0.273
	c0.417-0.252,0.833-0.506,1.652-1.002c-1.313,1.602-0.555,2.113,0.812,2.65c1.506,0.592,2.853,1.51,4.427,2.373
	c0.93-0.701,1.955-1.475,3.099-2.338c-1.216-1.289-2.303-2.441-3.39-3.594c0.157-0.145,0.313-0.289,0.47-0.434
	c3.184,2.836,6.366,5.674,9.565,8.523c0.867-2.916,2.176-6.035,2.595-9.25c0.22-1.688-1.119-3.541-1.512-5.459
	c0.773,1.18,1.545,2.359,2.355,3.596c2.583-3.486,5.145-6.945,7.706-10.404c0.211,0.107,0.42,0.217,0.629,0.326
	c-0.382,0.609-0.793,1.207-1.142,1.834c-1.156,2.08-2.158,4.24-3.46,6.24c-2.583,3.973-1.585,7.73,0.507,11.49
	c0.213-0.02,0.425-0.039,0.638-0.059c-0.148-1.268-0.295-2.535-0.438-3.773c0.247,0.156,0.758,0.48,1.329,0.844
	c0.445-0.684,0.887-1.363,1.329-2.043c-1.365,2.189,0.277,3.645,1.263,5.438c1.978,3.6,3.516,7.398,5.325,11.309
	c0.305-0.756,0.895-1.648,1.004-2.588c0.748-6.422-0.226-12.629-3.094-18.57c-0.146-0.303-0.208-0.641-0.132-1.018
	c3.854,5.342,6.869,10.959,7.128,17.502c3.818-1.127,4.092-1.51,2.894-4.881c-0.678-1.908-1.584-3.75-2.085-5.797
	c0.929,1.213,1.914,2.393,2.775,3.645c0.89,1.293,1.661,2.654,2.566,4.121c0.818-0.242,1.679-0.496,2.541-0.75
	c0.046,0.08,0.093,0.16,0.139,0.238c-0.672,0.391-1.346,0.781-2.271,1.32c0.221,0.795,0.465,1.674,0.754,2.715
	c2.087-0.684,4.553-0.73,4.524-3.592c0.123,0.607,0.246,1.213,0.369,1.82c0.242,0.033,0.484,0.068,0.726,0.102
	c0.18-0.703,0.63-1.451,0.498-2.102c-0.818-3.988-1.751-7.959-2.688-11.928c-0.157-0.67-0.516-1.301-0.78-1.949
	c0.258-0.098,0.515-0.193,0.773-0.291c2.214,4.465,4.429,8.93,6.635,13.377c3.554-2.727,0.653-4.945-0.363-7.277
	c0.177-0.08,0.355-0.158,0.532-0.238c1.808,2.672,3.751,5.275,5.381,8.033c1.389,2.346,1.478,2.496,3.958,1.184
	c0.177-0.094,0.451-0.037,0.758-0.055c-1.083,1.807-2.126,3.549-3.232,5.396c4.182,0.42,5.69-0.57,6.678-3.641
	c1.052-3.273,2.371-6.477,3.698-10.045c-0.069-0.072-0.538-0.559-1.473-1.529c1.161,0.559,1.728,0.83,2.331,1.121
	c1.977-1.953,3.952-3.904,5.926-5.855c0.086,0.059,0.172,0.115,0.257,0.172c-0.89,1.709-1.779,3.42-2.669,5.129
	c-0.293,0.463-0.966,1.125-0.819,1.35c0.777,1.186,1.76,2.258,2.671,3.371c0.227-0.117,0.454-0.236,0.68-0.354
	c-0.871-1.479-1.742-2.955-2.613-4.434c1.693,1.313,3.387,2.623,5.101,3.951c4.138-5.785,6.726-13.129,12.752-18.619
	c-4.68,7.35-7.626,15.127-7.515,23.971c2.149-1.777,4.125-3.41,6.222-5.145c-0.98-1.842-1.982-3.725-2.985-5.607
	c0.161-0.104,0.323-0.207,0.483-0.311c1.755,1.34,3.51,2.68,5.198,3.969c2.657-2.773,5.261-5.49,7.865-8.209
	c0.103,0.076,0.204,0.152,0.307,0.227c-1.965,2.922-3.931,5.842-5.987,8.898c2.561,1.064,4.727,1.967,6.696,2.785
	c2.342-1.576,4.556-3.066,6.769-4.557c-1.575,1.781-3.151,3.563-4.854,5.486c1.056,0.549,1.776,0.922,2.69,1.396
	c0.629-1.531,1.199-2.789,1.661-4.082c0.384-1.076,0.64-2.189,0.953-3.285c0.384-0.232,0.77-0.465,1.5-0.908
	c-0.584,1.994-1.081,3.688-1.679,5.73c0.916-0.523,1.472-0.84,2.028-1.156c0.065,0.066,0.129,0.133,0.194,0.197
	c-0.734,0.822-1.686,1.559-2.133,2.494c-0.36,0.754-0.111,1.746-0.13,2.631c0.845,0.004,1.767,0.205,2.523-0.031
	c1.853-0.574,3.628-1.35,5.609-1.66c-2.021,0.986-4.042,1.975-6.529,3.188c2.3,1.914,4.338,3.609,6.857,5.705
	c0.262-1.139,0.407-1.455,0.396-1.77c-0.15-4.605,1.151-8.926,3.402-12.986c1.025-1.85,1.15-3.543,0.337-5.414
	c-0.846-1.947-1.601-3.928-2.298-5.92c5.732,7.756,8.843,16.195,7.647,25.76c0.345,0.031,0.688,0.063,1.033,0.094
	c0.534-1.393,1.322-2.75,1.558-4.184c0.806-4.922,2.926-9.344,5.89-13.512c-1.347,3.994-3.544,7.875-1.798,12.461
	c1.759-1.395,4.728-1.326,5.13-4.578c0.287,0.781,0.424,1.152,0.56,1.521c0.182,0.053,0.365,0.105,0.548,0.158
	c0.221-0.664,0.684-1.346,0.626-1.99c-0.479-5.316-1.41-10.549-3.714-15.584c0.694,1.131,1.415,2.248,2.074,3.396
	c0.668,1.162,1.314,2.338,1.896,3.537c0.613,1.262,1.064,2.592,1.73,3.83c0.422,0.783,1.107,1.453,1.674,2.174
	c0.221-0.133,0.441-0.266,0.663-0.398c-0.75-1.209-1.5-2.42-2.251-3.629c0.173-0.152,0.346-0.307,0.518-0.459
	c2.55,5.938,9.222,7.203,13.875,10.674c1.365-4.539,2.229-9.285,4.242-13.592c2.039-4.357,5.216-8.279,7.895-12.393
	c0.275,0.143,0.549,0.285,0.824,0.428c-1.039,1.715-2.104,3.418-3.103,5.152c-0.557,0.965-1.116,1.951-1.478,2.986
	c-0.763,2.184-1.396,4.404-2.083,6.609c3.052,2.016,4.859,5.514,9.709,6.365c-1.249-4.676-2.419-9.061-3.591-13.445
	c0.082-0.051,0.164-0.102,0.245-0.152c1.343,2.545,2.851,5.033,3.981,7.652c1.13,2.615,1.881,5.365,2.849,8.203
	c1.2-0.516,2.381-1.021,3.754-1.611c-1.188-5.367-4.137-9.889-7.481-14.275c4.128,3.084,7.188,6.932,9.773,11.672
	c1.815-7.314,5.351-13.348,10.685-18.533c-3.401,5.768-6.366,11.654-7.143,18.322c3.339-0.734,4.317-3.064,2.782-5.822
	c2.077,1.67,4.153,3.34,6.443,5.184c0.49-0.891,0.997-1.814,1.504-2.736c0.099,0.023,0.199,0.047,0.298,0.07
	c-0.313,1.361-0.626,2.723-1.068,4.654c2.875-1.166,4.106-3.078,5.705-4.574c0.176-0.164-0.213-0.938-0.479-1.357
	c-1.309-2.068-2.665-4.111-3.634-6.455c1.978,2.08,3.958,4.158,6.083,6.391c0.366-0.168,0.882-0.404,1.658-0.76
	c-0.171,0.375-0.269,0.525-0.307,0.686c-0.145,0.621-0.565,1.348-0.353,1.85c1.11,2.613,2.384,5.17,3.67,7.895
	c1.844-0.619,3.958-1.326,6.122-2.053c-0.179,0.797-0.331,1.465-0.476,2.135c-2.992,2.35-3.36,6.357-0.69,9.287
	c1.212-2.652,2.386-5.221,3.576-7.824c-0.935-0.48-1.947-1.002-2.959-1.521c0.398,0.057,0.803,0.086,1.193,0.172
	c3.2,0.703,5.16-0.832,5.195-3.834c0.009-0.705,0.923-1.396,1.406-2.102c2.652-3.867,5.3-7.734,8.468-11.422
	c-0.276,0.973-0.298,2.096-0.87,2.895c-3.05,4.26-3.009,9.072-3.575,14.313c1.058-0.529,1.657-0.832,2.42-1.215
	c0.062,1.1,0.201,2.129,0.158,3.152c-0.09,2.139,1.103,3.279,3.066,4.408c2.769,1.594,4.713-0.484,6.996-0.846
	c0.492-0.078,0.887-1.797,0.95-2.779c0.343-5.41,0.304-5.414-5.202-7.756c-1.23-0.523-2.468-1.027-3.53-1.934
	c3.091,1.1,6.182,2.199,9.089,3.234c2.194-4.523,4.375-9.02,6.557-13.518c0.217,0.076,0.434,0.15,0.65,0.225
	c-0.129,0.408-0.27,0.813-0.388,1.223c-1.094,3.771-2.201,7.541-3.268,11.318c-0.446,1.578-0.017,2.717,1.79,3.514
	c1.865,0.824,3.543,1.998,5.143,2.926c1.979-3.451,4.08-7.113,6.18-10.775c0.396,0.053,0.792,0.104,1.188,0.156
	c-3.421,3.154-1.982,5.498,0.982,7.451c2.547,1.678,3.736-1.166,6.265-1.41c-2.041-3.053-3.849-5.756-5.656-8.463
	c0.031-0.043,0.063-0.088,0.094-0.131c1.401,1.473,2.803,2.945,4.204,4.418c0.315-0.205,0.632-0.41,0.947-0.615
	c-0.957-2.979-1.915-5.957-2.872-8.936c0.185-0.068,0.368-0.137,0.552-0.205c1.976,4,3.954,7.998,6.016,12.172
	c0.396-0.152,0.996-0.383,1.752-0.672c-0.603-1.027-1.117-1.902-1.63-2.777c0.082-0.072,0.164-0.145,0.246-0.217
	c1.001,0.891,2.003,1.779,3.005,2.67c0.244-0.221,0.489-0.439,0.732-0.66c-1.338-1.479-2.675-2.957-4.014-4.436
	c0.075-0.08,0.148-0.158,0.223-0.238c1.756,1.293,3.513,2.586,5.343,3.934c1.513-1.23,2.987-2.428,4.638-3.77
	c-1.393-1.965-2.81-3.963-4.329-6.105c4.877,4.021,9.614,7.926,14.876,12.264c-0.654-2.139-1.136-3.713-1.618-5.287
	c0.077-0.037,0.153-0.074,0.229-0.113c0.86,1.676,1.719,3.35,2.661,5.182c0.915-1.727,1.725-3.258,2.535-4.789
	c0.049,0.027,0.097,0.055,0.145,0.082c-0.551,2.172-1.276,4.324-1.56,6.525c-0.097,0.756,0.904,1.631,1.445,2.518
	c0.998-0.324,1.868-0.607,2.8-0.912c-0.637,0.859-1.795,1.74-1.649,2.375c0.266,1.145,1.309,2.143,2.027,3.201
	c0.242-0.119,0.485-0.24,0.728-0.361c-0.108-0.586-0.216-1.174-0.399-2.172c0.57,0.637,0.893,0.998,1.497,1.674
	c0.17-0.967,0.32-1.688,0.419-2.414c0.104-0.773,0.161-1.551,0.657-2.354c0.346,3.244,0.694,6.488,1.041,9.732
	c0.227-0.004,0.455-0.01,0.681-0.014c1.147-4.25,2.294-8.5,3.38-12.523c2.303-0.813,2.578-3.582,4.947-4.99
	c-0.685,1.246-1.117,2.264-1.762,3.156c-1.567,2.174-1.436,4.025,1.319,5.689c1.734-9.641,8.704-16.609,14.849-24.051
	c-5.797,8.387-8.667,17.471-8.259,27.717c3.043-4.285,5.926-8.344,8.81-12.402c-2.921,6.48-5.896,12.871-3.853,19.973
	c0.271,0.037,0.539,0.072,0.81,0.107c0.259-2.416,0.517-4.834,0.775-7.252c0.148-0.01,0.296-0.018,0.443-0.027
	c0.368,5.248,0.744,10.863,1.125,16.291c-1.441,0-1.508,0-5.359,0c-0.712,0-1.345,0-2.125,0c-22.317,0.004-44.746-0.002-67.063,0
	c-4.741,0-96.504,0-133.563,0c-80.185,0-160.254-0.002-240.438,0c-13.519,0-27.188,0-40.688,0c-0.879,0-1.785,0.057-2.663,0
	C0,416.85,0,416.189,0,415.898z M102.045,403.768c2.655-3.299,2.22-13.055-0.851-17.631
	C99.583,392.152,98.345,397.979,102.045,403.768z M413.977,414.236c1.088-1.896,2.552-3.832,3.35-5.973
	c1.486-3.992,2.001-6.238-1.467-8.35C412.121,404.354,412.558,409.334,413.977,414.236z M22.751,400.115
	c-1.118,0.432-1.827,0.768-2.577,0.986c-2.074,0.6-2.692,1.656-1.872,3.596c0.681,1.613,0.98,3.365,1.404,5.064
	c0.472,1.891,0.893,3.791,1.335,5.688c0.16-0.021,0.318-0.043,0.478-0.064C21.92,410.41,22.322,405.436,22.751,400.115z
	 M331.866,401.502c1.574-0.664,3.006-1.266,4.905-2.066c-2.169-2.703-1.61-6.604-5.997-8.826
	C331.291,394.541,328.926,397.996,331.866,401.502z M290.623,407.271c1.4-5.859,2.273-11.543,0.677-17.26
	c-1.966,5.109-2.598,10.326-1.711,15.656C289.682,406.236,290.267,406.738,290.623,407.271z M424.27,404.814
	c1.342,3.832,2.544,7.266,3.745,10.699c-0.167-4.174,2.705-8.541-0.944-12.65C425.896,403.682,424.962,404.332,424.27,404.814z
	 M131.586,396.523c-2.869,1.051-4.681,3.27-4.354,5.441c0.354,2.357,3.174,1.721,4.583,2.885c0.224-0.088,0.447-0.178,0.67-0.266
	C132.196,401.984,131.906,399.385,131.586,396.523z M450.041,403.592c2.302-1.709,0.598-11.479-2.617-16.094
	c-1.492,0.492-1.454,1.369-0.992,2.568c0.971,2.525,1.908,5.072,2.624,7.662C449.575,399.605,449.715,401.566,450.041,403.592z
	 M134.838,389.395c-0.963,0.516-2.145,1.008-3.114,1.734c-0.426,0.32-0.765,1.271-0.547,1.666c0.765,1.381,1.789,2.643,2.722,3.961
	c2.072-2.908,4.917-5.727,1.094-9.344c-0.478,0.541-0.942,1.064-1.46,1.652C134.242,389.244,134.741,389.369,134.838,389.395z
	 M192.228,393.473c-2.077,1.459-3.177,5.25-2.151,7.059c0.69,1.217,2.544,1.895,3.878,2.813c0.291-0.148,0.581-0.295,0.872-0.443
	C193.96,399.758,193.094,396.615,192.228,393.473z M140.663,392.07c0.805,2.779,1.485,5.123,2.165,7.473
	c1.312-0.379,2.553-0.65,3.713-1.096c1.146-0.441,1.308-2.625,0.234-3.221C144.897,394.184,142.951,393.244,140.663,392.07z
	 M237.902,402.631c0.208,0.045,0.417,0.09,0.626,0.135c0.574-0.844,1.157-1.684,1.719-2.535c0.617-0.934,1.231-1.869,1.821-2.816
	c1.796-2.896,1.501-3.494-2.635-4.539C238.917,396.166,238.409,399.398,237.902,402.631z M42.089,402.352
	c0.625,3.504,1.25,7.01,1.876,10.516c0.63-0.912,0.847-1.822,1.092-2.727c0.246-0.914,0.522-1.82,0.781-2.73
	C46.833,403.92,46.833,403.92,42.089,402.352z M421.102,401.619c0.245,0.078,0.49,0.154,0.735,0.232
	c1.65-1.408,3.301-2.818,5.059-4.318c-1.06-1.488-2.075-2.91-3.088-4.334c-0.214,0.004-0.427,0.006-0.641,0.008
	C422.479,396.012,421.79,398.814,421.102,401.619z M472.384,404.732c3.341-0.533,4.27-2.471,4.158-4.789
	c-0.071-1.469-0.688-2.969-3.099-3.531C473.08,399.273,472.735,401.973,472.384,404.732z M59.987,391.492
	c-0.314-0.109-0.628-0.219-0.943-0.33c-1.279,1.227-2.558,2.451-4.004,3.838c2.328,1.428,4.148,2.547,6.427,3.943
	C60.912,396.15,60.45,393.822,59.987,391.492z M321.543,406.332c0.215-0.033,0.428-0.066,0.643-0.1
	c0.174-1.834,0.515-3.672,0.451-5.498c-0.032-0.943-0.55-2.098-1.294-2.719c-0.503-0.422-1.783-0.082-3.406-0.082
	C319.303,401.115,320.422,403.725,321.543,406.332z M455.338,399.691c3.169-1.619,1.11-7.033-4.427-11.525
	C452.339,391.883,453.843,395.799,455.338,399.691z M316.803,409.32c0.166-0.049,0.333-0.096,0.5-0.143
	c-0.126-1.635-0.082-3.301-0.43-4.895c-0.3-1.377-0.958-2.717-1.671-3.973c-0.139-0.244-1.265-0.029-1.935-0.027
	c0.165,1.305,0.225,2.631,0.542,3.906c0.138,0.553,0.905,0.955,1.211,1.506C315.675,406.875,316.216,408.107,316.803,409.32z
	 M475.752,404.623c-4.517,2.422-4.996,6.006-1.442,9.379C474.787,410.902,475.248,407.906,475.752,404.623z M60.722,403.619
	c-2.188-1.115-4.225-2.152-6.41-3.264c-0.369,3.936-0.088,4.254,4.553,5.527C59.412,405.217,59.971,404.535,60.722,403.619z
	 M139.21,403.094c-4.327,1.746-4.136,3.521,0.956,8.547C139.832,408.646,139.523,405.895,139.21,403.094z M356.83,395.885
	c0.095,0.229,0.189,0.459,0.284,0.688c1.708-0.643,3.417-1.287,5.391-2.027c-0.797-1.459-1.406-2.576-1.974-3.617
	C356.771,391.283,357.789,394.137,356.83,395.885z M135.569,402.299c0.271,0.135,0.541,0.27,0.811,0.402
	c0.792-0.67,2.217-1.307,2.262-2.016c0.146-2.285-0.218-4.598-0.385-6.898c-0.352-0.01-0.704-0.018-1.056-0.027
	C136.657,396.605,136.113,399.453,135.569,402.299z M167.273,410.484c0.338,0.061,0.675,0.119,1.014,0.18
	c0.877-4.418,1.755-8.836,2.633-13.256c-0.287-0.047-0.574-0.096-0.861-0.143C167.792,401.432,168.43,406.117,167.273,410.484z
	 M95.828,398.293c-2.501,0.426-3.042,0.715-2.676,2.232c0.378,1.578-1.194,4.242,2.676,4.441
	C95.828,402.736,95.828,400.586,95.828,398.293z M371.875,391.408c-3.928,1.445-5.078,3.594-3.125,6.074
	C369.353,395.203,373.463,394.76,371.875,391.408z M33.732,398.156c-0.247-0.01-0.494-0.02-0.741-0.027
	c-1.84,2.045-1.966,7.109-0.077,10.217C33.202,404.766,33.467,401.461,33.732,398.156z M372.864,410.816
	c1.402-6.451,1.211-7.041-2.601-8.209c0.68,2.531,1.335,4.988,2.01,7.443C372.321,410.229,372.514,410.373,372.864,410.816z
	 M443.213,393.322c-0.464,0.105-0.927,0.211-1.391,0.318c1.095,3.549,2.19,7.1,3.285,10.648c0.352-0.084,0.705-0.168,1.058-0.252
	C445.18,400.465,444.196,396.893,443.213,393.322z M237.056,410.689c4.248-1.6,4.188-4.855,5.28-8.248
	C238.84,404.666,238.684,407.818,237.056,410.689z M128.833,408.859c0.759-0.893,1.552-1.824,2.496-2.934
	c-1.586-0.75-2.869-1.357-4.304-2.035C126.563,406.084,125.761,408.006,128.833,408.859z M369.577,400.787
	c4.206-1.871,4.616-2.84,2.809-6.443C371.37,396.51,369.07,397.91,369.577,400.787z M270.103,395.379
	c-1.972-1.018-3.877-2-5.783-2.982c-0.053,0.109-0.104,0.219-0.157,0.328c1.268,1.852,2.535,3.705,3.836,5.607
	C268.67,397.391,269.316,396.482,270.103,395.379z M163.152,398.027c0.282,0.098,0.562,0.195,0.843,0.293
	c1.104-1.727,2.208-3.455,3.376-5.281c-1.073-0.453-1.847-0.781-2.924-1.234C163.989,394.006,163.57,396.016,163.152,398.027z
	 M306.771,398.809c-3.909,1.48-4.831,2.57-4.038,4.943C304.972,402.658,307.598,401.924,306.771,398.809z M358.671,403.758
	c0.243-0.004,0.485-0.01,0.729-0.016c0.766-1.645,1.532-3.289,2.286-4.904c-2.052-1.082-3.339-0.867-3.419,0.543
	C358.185,400.83,358.519,402.299,358.671,403.758z M123.59,399.145c1.555-2.441,2.897-4.547,4.355-6.834
	C122.576,394.518,122.576,394.518,123.59,399.145z M228.417,405.172c0,2.332,0,4.135,0,6.256c1.196-1.512,2.163-2.732,3.247-4.1
	C230.676,406.672,229.741,406.051,228.417,405.172z M432.274,406.85c0.162,0.014,0.325,0.027,0.486,0.041
	c0.249-2.209,0.497-4.422,0.799-7.109c-1.414,0.631-2.105,0.939-2.87,1.281c0.366,1.391,0.692,2.654,1.033,3.914
	C431.892,405.604,432.089,406.225,432.274,406.85z M194.974,411.107c0.59-3.381-0.155-6.342-3.86-6.797
	C192.328,406.447,193.565,408.627,194.974,411.107z M54.498,405.348c-0.237,0.123-0.476,0.246-0.714,0.369
	c0.563,1.592,1.127,3.184,1.69,4.773c0.219-0.01,0.438-0.021,0.658-0.031c0.505-0.947,1.011-1.895,1.619-3.033
	C56.618,406.701,55.558,406.025,54.498,405.348z M53.949,399.135c2.251,0.857,4.188,1.594,6.124,2.33
	c0.085-0.125,0.171-0.252,0.257-0.379c-1.768-1.426-3.535-2.85-5.553-4.479C54.443,397.625,54.225,398.293,53.949,399.135z
	 M306.008,404.299c-3.543,2.275-3.821,3.025-2.265,6.357C304.441,408.697,305.138,406.738,306.008,404.299z M177.298,393.121
	c-0.635-0.813-1.289-1.65-2.046-2.621c-0.903,0.992-1.597,1.756-2.311,2.541C175.815,394.611,175.815,394.611,177.298,393.121z
	 M462.676,402.898c0.737,2.742,1.474,5.482,2.368,8.805C466.364,407.855,464.532,405.373,462.676,402.898z M95.586,411.533
	c1.197-3.75,0.586-5.285-2.431-5.59C93.977,407.834,94.699,409.492,95.586,411.533z M36.62,393.469
	c-1.373,1.316-2.722,2.186-1.92,3.73c0.334,0.646,1.402,0.98,2.135,1.455c0.165-0.129,0.33-0.258,0.495-0.385
	C37.116,396.824,36.902,395.381,36.62,393.469z M441.915,402.596c-0.327-1.797-0.633-3.482-1.03-5.654
	C438.739,400.521,439.04,401.947,441.915,402.596z M259.353,392.723c-1.634,2.041-3.009,3.758-4.385,5.475
	C258.704,396.875,260.254,395.002,259.353,392.723z M204.795,403.488c2.086-0.732,3.493-1.664,2.408-3.832
	C203.737,401.289,203.488,401.672,204.795,403.488z M279.752,406.967c-0.227,0.086-0.453,0.17-0.68,0.256
	c0.985,2.064,1.971,4.129,2.957,6.195C282.024,410.994,282.214,408.508,279.752,406.967z M211.299,410.074
	c0.221,0.055,0.441,0.109,0.663,0.164c0.738-1.689,1.478-3.379,2.419-5.533C210.777,405.939,211.096,408.027,211.299,410.074z
	 M35.389,403.576c2.91-3.227,2.791-4.027-0.574-4.635C34.998,400.416,35.174,401.844,35.389,403.576z M7.531,406.469
	c3.107-1.775,3.282-2.287,1.939-6.051C8.741,402.695,8.187,404.422,7.531,406.469z M68.604,407.871
	c0.188-0.023,0.374-0.047,0.561-0.07c0.202-1.502,0.404-3.004,0.676-5.021c-1.388,1-2.248,1.621-3.252,2.346
	C67.314,406.111,67.959,406.992,68.604,407.871z M270.044,401.199c3.059-1.051,3.611-3.004,1.699-4.645
	C271.148,398.182,270.596,399.691,270.044,401.199z M65.58,402.158c0.252,0.264,0.505,0.525,0.757,0.789
	c1.355-1.154,4.127-0.885,4.187-4.129C68.575,400.135,67.078,401.145,65.58,402.158z M232.999,406.217
	c0.232-1.195,0.417-2.148,0.66-3.408c-1.685,0.496-3.021,0.889-4.699,1.383C230.446,404.938,231.544,405.488,232.999,406.217z
	 M221.458,400.006c1.355-0.678,3.854-0.217,2.466-3.105C222.752,397.727,220.21,397.229,221.458,400.006z M77.131,403.564
	c0.269,0.008,0.538,0.018,0.805,0.025c0.236-1.068,0.672-2.15,0.589-3.199c-0.025-0.322-1.467-0.553-2.87-1.035
	C76.305,401.209,76.719,402.387,77.131,403.564z M445.599,390.004c-2.359,1.363-2.163,1.998,1.156,4.5
	C446.354,392.939,446,391.564,445.599,390.004z M151.453,398.229c-0.222,0.148-0.443,0.297-0.665,0.445
	c0.488,0.865,0.904,1.773,1.499,2.574c0.21,0.283,0.85,0.307,1.294,0.449c0.076-0.486,0.41-1.15,0.179-1.426
	C153.117,399.504,152.238,398.898,151.453,398.229z M146.164,402.756c0.167-0.129,0.333-0.26,0.5-0.389
	c-0.361-0.861-0.724-1.723-1.146-2.727c-1.036,0.572-1.785,0.986-3.07,1.697C144.089,401.965,145.126,402.361,146.164,402.756z
	 M211.41,403.979c1.543-0.807,3.52-1.105,2.831-3.496C212.768,401.334,210.496,401.344,211.41,403.979z M112.061,408.424
	c0.246,0.033,0.493,0.066,0.74,0.1c0-1.578,0-3.156,0-4.734c-0.247-0.006-0.494-0.012-0.74-0.018
	C112.061,405.322,112.061,406.873,112.061,408.424z M47.533,398.002c-1.335,1.01-2.393,1.809-3.701,2.799
	c1.339,0.301,2.165,0.488,3.196,0.721C47.205,400.289,47.357,399.232,47.533,398.002z M380.809,396.941
	c-0.137-0.174-0.275-0.35-0.413-0.523c-1.098,0.463-2.196,0.926-3.468,1.463c0.515,0.834,0.903,1.465,1.382,2.24
	C379.25,398.926,380.03,397.934,380.809,396.941z M167.853,393.297c-0.698,1.482-1.287,2.729-2.097,4.449
	C169.184,395.672,169.585,394.832,167.853,393.297z M241.55,401.152c2.128-1.043,3.098-3.393,2.146-4.545
	C242.959,398.168,242.254,399.66,241.55,401.152z M203.277,411.098c2.733-2.572,2.733-2.572,0.961-4.318
	C203.884,408.369,203.58,409.732,203.277,411.098z M439.098,402.863c1.034,1.561,1.929,2.91,3.033,4.578
	C441.964,403.51,441.964,403.51,439.098,402.863z M411.987,396.713c0,1.225,0,2.121,0,3.326c1.047-0.52,1.824-0.906,2.775-1.377
	C413.775,397.971,413.03,397.447,411.987,396.713z M274.473,403.768c-1.3,2.268-0.05,4.543,0,6.814
	C274.473,408.311,274.473,406.039,274.473,403.768z M143.479,402.586c0.276,1.369,0.489,2.416,0.822,4.063
	c0.853-1.354,1.342-2.129,1.924-3.053C145.245,403.234,144.539,402.977,143.479,402.586z M430.64,397.34
	c1.141,0.58,1.938,0.986,2.919,1.484c0-1.146,0-2.033,0-3.201C432.552,396.215,431.778,396.67,430.64,397.34z"/>
<path fill-rule="evenodd" clip-rule="evenodd" fill="#009245" d="M466.091,415.898c1.597-4.168,3.418-8.283,4.653-12.537
	c0.363-1.254-0.936-2.902-1.608-4.742c1.021,1.082,1.835,1.943,2.641,2.799c0.188-0.051,0.383-0.051,0.468-0.137
	c3.666-3.695,3.696-3.711,1.121-8.123c-0.967-1.656-2.116-3.225-3.184-4.834c0.157-0.111,0.313-0.223,0.47-0.332
	c2.372,2.85,4.744,5.701,7.117,8.551c-1.153-3.953-3.907-7.012-6.889-9.945c0.187-0.162,0.373-0.326,0.559-0.488
	c2.707,2.521,5.403,5.055,8.132,7.557c0.529,0.484,1.191,0.85,2.058,1.453c-0.012,0.059-0.145,0.736-0.389,1.973
	c2.225-1.742,3.882-3.041,6.005-4.703c-1.568,3.137-5.827,4.619-3.971,8.373c4.218-1.129,8.339-2.23,12.456-3.332
	c-1.674,0.645-3.408,1.186-4.984,1.979c-0.645,0.324-1.391,1.232-1.338,1.818c0.326,3.613,0.867,7.209,1.334,10.787
	c1.818-4.857,3.619-9.674,5.408-14.459c0.277,0.037-0.107-0.014-0.492-0.066c1.686-1.09,3.305-2.281,5.075-3.244
	c1.705-0.926,1.786-2.049,0.962-3.443c-1.741-2.947-3.498-5.883-5.262-8.818c-0.246-0.41-0.563-0.787-0.688-1.271
	c5.023,4.086,8.818,8.895,10.785,15.309c0.965-1.424,1.717-2.533,2.646-3.906c-0.279,2.762-3.105,4.697-1.643,7.598
	c2.732-1.893,5.351-3.709,8.428-5.842c-3.105-1.365-5.463-2.402-7.822-3.438c0.049-0.123,0.098-0.246,0.146-0.369
	c2.438,0.84,4.873,1.678,7.303,2.516c0.992-2.037,0.207-5.146-2.975-13.455c1.821,3.09,3.643,6.18,5.463,9.27
	c0.086-0.094,0.172-0.188,0.258-0.283c0.283,1.58,0.565,3.158,0.963,5.369c1.969-1.779,3.524-3.096,4.924-4.535
	c0.248-0.256-0.004-1.1-0.275-1.549c-1.189-1.967-2.471-3.889-3.35-6.17c1.051,1.061,2.111,2.115,3.151,3.184
	c0.996,1.023,1.972,2.063,3.288,2.713c1.555,4.279,3.107,8.559,4.742,13.061c1.37-0.629,3.039-1.168,4.355-2.109
	c0.512-0.367,0.633-1.855,0.236-2.463c-1.129-1.73-2.615-3.271-3.704-5.197c1.548,1.156,3.095,2.314,4.614,3.449
	c1.368-3.576,2.409-7.297,4.197-10.697c1.813-3.443,4.363-6.566,6.992-9.658c-3.973,7.09-7.315,14.279-7.146,22.523
	c0.803-0.115,1.558-0.225,2.309-0.332c-0.273,0.154-0.568,0.277-0.803,0.465c-0.6,0.48-1.17,0.99-1.752,1.488
	c0.909,0.246,1.809,0.551,2.737,0.707c0.307,0.053,0.69-0.271,1.384-0.574c-0.598-0.75-1.116-1.4-1.633-2.051
	c-0.154-0.877-0.308-1.754-0.508-2.893c0.68,0.854,1.203,1.51,1.645,2.064c2.365-5.131,4.715-10.232,7.065-15.334
	c0.122,0.053,0.243,0.107,0.366,0.162c-1.344,4.998-2.686,9.994-4.028,14.992c0.292,0.094,0.583,0.188,0.873,0.283
	c0.612-0.816,1.226-1.631,1.597-2.125c0.178,2.375,0.373,4.988,0.606,8.104c2.784-1.834,7.294-0.783,7.46-5.297
	c0.135,0.455,0.271,0.908,0.457,1.539c0.682-0.4,1.314-0.771,2.238-1.313c-1.486-1.791-2.9-3.494-4.316-5.199
	c0.094-0.105,0.187-0.209,0.279-0.314c1.652,1.268,3.305,2.533,4.924,3.773c1.428-3.256,2.947-6.49,4.216-9.803
	c0.284-0.738-0.321-1.758-0.542-2.76c0.422,0.412,0.806,0.787,1.34,1.309c0.81-1.23,1.566-2.379,2.365-3.594
	c0.118,0.211,0.25,0.352,0.217,0.402c-1.93,2.871-1.744,5.541,0.21,8.477c1.468,2.205,2.156,4.836,3.254,7.422
	c0.666-0.818,1.376-1.691,2.086-2.563c-0.132,0.482-0.13,1.041-0.413,1.434c-2.267,3.154-1.277,6.611-1.395,10.4
	c1.246-1.676,1.929-3.414,3.286-4.221c2.034-1.211,1.563-2.49,0.88-3.859c-0.646-1.295-1.611-2.461-2.436-3.686
	c-0.56-1.428-1.119-2.855-1.678-4.283c0.141-0.094,0.281-0.189,0.422-0.283c2.252,2.928,4.506,5.855,6.811,8.85
	c3.042-0.777,5.549-3.6,4.342-7.047c-1.297-3.705-2.306-7.492-3.569-11.67c2.253,4.006,4.315,7.674,6.403,11.332
	c0.001,0.002,0.382-0.174,0.537-0.244c-0.075,1.088-0.153,2.219-0.266,3.838c2.336-0.912,4.134-1.613,6.15-2.4
	c-0.735-1.023-1.377-1.916-2.018-2.809c0.039-0.043,0.078-0.086,0.117-0.129c0.895,0.926,1.789,1.852,2.74,2.836
	c2.164-1.709,3.898-3.08,5.816-4.596c-1.394-1.988-2.76-3.939-4.127-5.889c0.102-0.092,0.203-0.182,0.305-0.273
	c1.861,1.936,3.818,3.803,5.549,5.83c1.178,1.377,1.692,3.377,3.121,4.379c1.873,1.311,4.355,1.908,6.57,2.822
	c0.609,0.25,1.203,0.537,1.774,0.793c3.435-3.008-0.216-4.791-1.502-7.244c1.333,0.748,2.665,1.498,4.167,2.342
	c0.404-0.52,0.937-1.199,1.469-1.879c-1.526,2.275-0.378,3.836,1.381,5.551c1.438,1.4,2.342,3.25,3.656,5.152
	c1.67-6.494,5.789-11.416,11.294-15.514c-1.344,1.813-2.687,3.623-4.028,5.434c0.088,0.092,0.176,0.184,0.265,0.273
	c0.417-0.252,0.833-0.506,1.652-1.002c-1.313,1.602-0.555,2.113,0.812,2.65c1.506,0.592,2.853,1.51,4.428,2.373
	c0.93-0.701,1.954-1.475,3.098-2.338c-1.216-1.289-2.303-2.441-3.39-3.594c0.157-0.145,0.313-0.289,0.47-0.434
	c3.184,2.836,6.366,5.674,9.564,8.523c0.867-2.916,2.176-6.035,2.596-9.25c0.22-1.688-1.119-3.541-1.513-5.459
	c0.772,1.18,1.546,2.359,2.354,3.596c2.583-3.486,5.146-6.945,7.706-10.404c0.211,0.107,0.42,0.217,0.63,0.326
	c-0.383,0.609-0.793,1.207-1.143,1.834c-1.156,2.08-2.157,4.24-3.46,6.24c-2.583,3.973-1.585,7.73,0.507,11.49
	c0.213-0.02,0.426-0.039,0.639-0.059c-0.148-1.268-0.295-2.535-0.438-3.773c0.247,0.156,0.758,0.48,1.329,0.844
	c0.444-0.684,0.887-1.363,1.328-2.043c-1.365,2.189,0.277,3.645,1.263,5.438c1.978,3.6,3.517,7.398,5.325,11.309
	c0.305-0.756,0.895-1.648,1.004-2.588c0.748-6.422-0.227-12.629-3.095-18.57c-0.146-0.303-0.208-0.641-0.132-1.018
	c3.854,5.342,6.869,10.959,7.129,17.502c3.818-1.127,4.092-1.51,2.893-4.881c-0.678-1.908-1.584-3.75-2.084-5.797
	c0.929,1.213,1.913,2.393,2.774,3.645c0.89,1.293,1.661,2.654,2.566,4.121c0.817-0.242,1.679-0.496,2.54-0.75
	c0.047,0.08,0.094,0.16,0.14,0.238c-0.673,0.391-1.347,0.781-2.271,1.32c0.221,0.795,0.465,1.674,0.754,2.715
	c2.088-0.684,4.553-0.73,4.524-3.592c0.123,0.607,0.246,1.213,0.369,1.82c0.241,0.033,0.484,0.068,0.726,0.102
	c0.181-0.703,0.631-1.451,0.498-2.102c-0.818-3.988-1.752-7.959-2.688-11.928c-0.157-0.67-0.516-1.301-0.78-1.949
	c0.258-0.098,0.516-0.193,0.773-0.291c2.214,4.465,4.429,8.93,6.635,13.377c3.554-2.727,0.652-4.945-0.363-7.277
	c0.178-0.08,0.355-0.158,0.533-0.238c1.807,2.672,3.751,5.275,5.381,8.033c1.389,2.346,1.477,2.496,3.957,1.184
	c0.178-0.094,0.451-0.037,0.758-0.055c-1.082,1.807-2.126,3.549-3.232,5.396c4.182,0.42,5.689-0.57,6.678-3.641
	c1.053-3.273,2.371-6.477,3.698-10.045c-0.069-0.072-0.538-0.559-1.474-1.529c1.162,0.559,1.729,0.83,2.332,1.121
	c1.977-1.953,3.951-3.904,5.926-5.855c0.086,0.059,0.172,0.115,0.257,0.172c-0.89,1.709-1.778,3.42-2.669,5.129
	c-0.294,0.463-0.967,1.125-0.819,1.35c0.776,1.186,1.761,2.258,2.671,3.371c0.227-0.117,0.453-0.236,0.68-0.354
	c-0.871-1.479-1.742-2.955-2.612-4.434c1.693,1.313,3.387,2.623,5.101,3.951c4.138-5.785,6.726-13.129,12.752-18.619
	c-4.68,7.35-7.626,15.127-7.515,23.971c2.149-1.777,4.125-3.41,6.222-5.145c-0.98-1.842-1.982-3.725-2.984-5.607
	c0.16-0.104,0.322-0.207,0.482-0.311c1.756,1.34,3.51,2.68,5.198,3.969c2.657-2.773,5.261-5.49,7.865-8.209
	c0.103,0.076,0.204,0.152,0.307,0.227c-1.966,2.922-3.931,5.842-5.987,8.898c2.562,1.064,4.728,1.967,6.696,2.785
	c2.342-1.576,4.556-3.066,6.769-4.557c-1.574,1.781-3.15,3.563-4.854,5.486c1.057,0.549,1.777,0.922,2.691,1.396
	c0.629-1.531,1.199-2.789,1.66-4.082c0.385-1.076,0.641-2.189,0.953-3.285c0.385-0.232,0.77-0.465,1.5-0.908
	c-0.584,1.994-1.08,3.688-1.679,5.73c0.916-0.523,1.472-0.84,2.028-1.156c0.064,0.066,0.129,0.133,0.193,0.197
	c-0.733,0.822-1.686,1.559-2.133,2.494c-0.359,0.754-0.11,1.746-0.13,2.631c0.845,0.004,1.767,0.205,2.522-0.031
	c1.854-0.574,3.629-1.35,5.609-1.66c-2.021,0.986-4.043,1.975-6.529,3.188c2.3,1.914,4.338,3.609,6.857,5.705
	c0.262-1.139,0.406-1.455,0.396-1.77c-0.15-4.605,1.15-8.926,3.401-12.986c1.025-1.85,1.15-3.543,0.337-5.414
	c-0.846-1.947-1.601-3.928-2.298-5.92c5.731,7.756,8.843,16.195,7.647,25.76c0.346,0.031,0.688,0.063,1.033,0.094
	c0.533-1.393,1.322-2.75,1.557-4.184c0.807-4.922,2.926-9.344,5.891-13.512c-1.347,3.994-3.544,7.875-1.798,12.461
	c1.759-1.395,4.728-1.326,5.13-4.578c0.287,0.781,0.424,1.152,0.561,1.521c0.182,0.053,0.364,0.105,0.548,0.158
	c0.222-0.664,0.685-1.346,0.626-1.99c-0.479-5.316-1.41-10.549-3.714-15.584c0.694,1.131,1.415,2.248,2.074,3.396
	c0.668,1.162,1.314,2.338,1.896,3.537c0.612,1.262,1.063,2.592,1.729,3.83c0.422,0.783,1.107,1.453,1.674,2.174
	c0.222-0.133,0.441-0.266,0.663-0.398c-0.75-1.209-1.5-2.42-2.251-3.629c0.172-0.152,0.346-0.307,0.518-0.459
	c2.551,5.938,9.223,7.203,13.875,10.674c1.365-4.539,2.229-9.285,4.242-13.592c2.039-4.357,5.216-8.279,7.895-12.393
	c0.275,0.143,0.549,0.285,0.824,0.428c-1.039,1.715-2.104,3.418-3.104,5.152c-0.557,0.965-1.115,1.951-1.478,2.986
	c-0.763,2.184-1.396,4.404-2.083,6.609c3.053,2.016,4.859,5.514,9.71,6.365c-1.249-4.676-2.419-9.061-3.591-13.445
	c0.082-0.051,0.164-0.102,0.244-0.152c1.343,2.545,2.851,5.033,3.981,7.652c1.13,2.615,1.882,5.365,2.849,8.203
	c1.201-0.516,2.381-1.021,3.754-1.611c-1.188-5.367-4.137-9.889-7.48-14.275c4.127,3.084,7.188,6.932,9.773,11.672
	c1.814-7.314,5.351-13.348,10.684-18.533c-3.4,5.768-6.365,11.654-7.143,18.322c3.34-0.734,4.317-3.064,2.783-5.822
	c2.076,1.67,4.152,3.34,6.443,5.184c0.489-0.891,0.996-1.814,1.504-2.736c0.1,0.023,0.199,0.047,0.298,0.07
	c-0.313,1.361-0.626,2.723-1.068,4.654c2.875-1.166,4.106-3.078,5.704-4.574c0.177-0.164-0.213-0.938-0.479-1.357
	c-1.309-2.068-2.664-4.111-3.634-6.455c1.978,2.08,3.958,4.158,6.083,6.391c0.365-0.168,0.881-0.404,1.657-0.76
	c-0.171,0.375-0.269,0.525-0.307,0.686c-0.145,0.621-0.565,1.348-0.353,1.85c1.11,2.613,2.384,5.17,3.67,7.895
	c1.845-0.619,3.959-1.326,6.122-2.053c-0.179,0.797-0.331,1.465-0.476,2.135c-2.992,2.35-3.36,6.357-0.69,9.287
	c1.212-2.652,2.386-5.221,3.575-7.824c-0.934-0.48-1.946-1.002-2.959-1.521c0.398,0.057,0.803,0.086,1.193,0.172
	c3.199,0.703,5.159-0.832,5.195-3.834c0.008-0.705,0.922-1.396,1.406-2.102c2.651-3.867,5.3-7.734,8.467-11.422
	c-0.275,0.973-0.297,2.096-0.869,2.895c-3.051,4.26-3.01,9.072-3.576,14.313c1.059-0.529,1.657-0.832,2.421-1.215
	c0.062,1.1,0.201,2.129,0.157,3.152c-0.09,2.139,1.104,3.279,3.066,4.408c2.77,1.594,4.713-0.484,6.996-0.846
	c0.492-0.078,0.887-1.797,0.949-2.779c0.344-5.41,0.305-5.414-5.201-7.756c-1.23-0.523-2.469-1.027-3.531-1.934
	c3.092,1.1,6.183,2.199,9.09,3.234c2.194-4.523,4.375-9.02,6.557-13.518c0.217,0.076,0.434,0.15,0.65,0.225
	c-0.129,0.408-0.27,0.813-0.389,1.223c-1.094,3.771-2.2,7.541-3.268,11.318c-0.445,1.578-0.018,2.717,1.789,3.514
	c1.865,0.824,3.543,1.998,5.143,2.926c1.979-3.451,4.08-7.113,6.18-10.775c0.396,0.053,0.793,0.104,1.188,0.156
	c-3.421,3.154-1.982,5.498,0.982,7.451c2.547,1.678,3.736-1.166,6.265-1.41c-2.041-3.053-3.849-5.756-5.656-8.463
	c0.031-0.043,0.063-0.088,0.094-0.131c1.4,1.473,2.803,2.945,4.204,4.418c0.315-0.205,0.632-0.41,0.947-0.615
	c-0.957-2.979-1.915-5.957-2.872-8.936c0.186-0.068,0.368-0.137,0.553-0.205c1.977,4,3.953,7.998,6.016,12.172
	c0.396-0.152,0.996-0.383,1.752-0.672c-0.603-1.027-1.117-1.902-1.63-2.777c0.082-0.072,0.164-0.145,0.246-0.217
	c1.001,0.891,2.003,1.779,3.005,2.67c0.244-0.221,0.488-0.439,0.732-0.66c-1.338-1.479-2.676-2.957-4.014-4.436
	c0.074-0.08,0.148-0.158,0.223-0.238c1.756,1.293,3.513,2.586,5.344,3.934c1.513-1.23,2.986-2.428,4.638-3.77
	c-1.394-1.965-2.81-3.963-4.329-6.105c4.877,4.021,9.614,7.926,14.877,12.264c-0.654-2.139-1.136-3.713-1.618-5.287
	c0.077-0.037,0.153-0.074,0.229-0.113c0.859,1.676,1.719,3.35,2.66,5.182c0.915-1.727,1.726-3.258,2.535-4.789
	c0.049,0.027,0.098,0.055,0.146,0.082c-0.551,2.172-1.276,4.324-1.56,6.525c-0.098,0.756,0.904,1.631,1.445,2.518
	c0.997-0.324,1.867-0.607,2.799-0.912c-0.637,0.859-1.795,1.74-1.648,2.375c0.266,1.145,1.309,2.143,2.026,3.201
	c0.241-0.119,0.485-0.24,0.728-0.361c-0.107-0.586-0.216-1.174-0.399-2.172c0.569,0.637,0.893,0.998,1.497,1.674
	c0.17-0.967,0.32-1.688,0.419-2.414c0.104-0.773,0.161-1.551,0.657-2.354c0.346,3.244,0.693,6.488,1.041,9.732
	c0.227-0.004,0.455-0.01,0.682-0.014c1.146-4.25,2.294-8.5,3.38-12.523c2.303-0.813,2.578-3.582,4.947-4.99
	c-0.685,1.246-1.117,2.264-1.762,3.156c-1.567,2.174-1.437,4.025,1.319,5.689c1.734-9.641,8.704-16.609,14.849-24.051
	c-5.797,8.387-8.667,17.471-8.259,27.717c3.043-4.285,5.926-8.344,8.81-12.402c-2.921,6.48-5.896,12.871-3.853,19.973
	c0.271,0.037,0.539,0.072,0.81,0.107c0.259-2.416,0.517-4.834,0.775-7.252c0.148-0.01,0.296-0.018,0.443-0.027
	c0.368,5.248,0.744,10.863,1.125,16.291c-1.441,0-1.508,0-5.359,0c-0.712,0-1.345,0-2.125,0c-22.317,0.004-44.746-0.002-67.063,0
	c-4.741,0-96.504,0-133.563,0c-80.185,0-160.255-0.002-240.438,0c-13.519,0-27.188,0-40.688,0c-0.879,0-1.785,0.057-2.663,0
	C466.091,416.85,466.091,416.189,466.091,415.898z M568.136,403.768c2.655-3.299,2.221-13.055-0.85-17.631
	C565.675,392.152,564.436,397.979,568.136,403.768z M880.067,414.236c1.088-1.896,2.553-3.832,3.35-5.973
	c1.486-3.992,2.001-6.238-1.467-8.35C878.212,404.354,878.649,409.334,880.067,414.236z M488.843,400.115
	c-1.119,0.432-1.828,0.768-2.578,0.986c-2.074,0.6-2.691,1.656-1.871,3.596c0.682,1.613,0.98,3.365,1.404,5.064
	c0.472,1.891,0.893,3.791,1.335,5.688c0.159-0.021,0.318-0.043,0.478-0.064C488.011,410.41,488.413,405.436,488.843,400.115z
	 M797.956,401.502c1.574-0.664,3.006-1.266,4.906-2.066c-2.17-2.703-1.611-6.604-5.997-8.826
	C797.382,394.541,795.017,397.996,797.956,401.502z M756.714,407.271c1.399-5.859,2.272-11.543,0.676-17.26
	c-1.966,5.109-2.598,10.326-1.711,15.656C755.772,406.236,756.357,406.738,756.714,407.271z M890.36,404.814
	c1.342,3.832,2.545,7.266,3.746,10.699c-0.168-4.174,2.704-8.541-0.945-12.65C891.986,403.682,891.053,404.332,890.36,404.814z
	 M597.677,396.523c-2.869,1.051-4.681,3.27-4.354,5.441c0.354,2.357,3.174,1.721,4.584,2.885c0.223-0.088,0.446-0.178,0.67-0.266
	C598.286,401.984,597.997,399.385,597.677,396.523z M916.132,403.592c2.303-1.709,0.598-11.479-2.617-16.094
	c-1.492,0.492-1.453,1.369-0.992,2.568c0.972,2.525,1.908,5.072,2.624,7.662C915.666,399.605,915.806,401.566,916.132,403.592z
	 M600.929,389.395c-0.963,0.516-2.145,1.008-3.113,1.734c-0.427,0.32-0.766,1.271-0.547,1.666c0.765,1.381,1.789,2.643,2.721,3.961
	c2.072-2.908,4.918-5.727,1.095-9.344c-0.478,0.541-0.942,1.064-1.46,1.652C600.333,389.244,600.831,389.369,600.929,389.395z
	 M658.318,393.473c-2.077,1.459-3.177,5.25-2.151,7.059c0.691,1.217,2.545,1.895,3.879,2.813c0.291-0.148,0.581-0.295,0.872-0.443
	C660.052,399.758,659.185,396.615,658.318,393.473z M606.753,392.07c0.806,2.779,1.485,5.123,2.166,7.473
	c1.312-0.379,2.553-0.65,3.713-1.096c1.146-0.441,1.309-2.625,0.234-3.221C610.988,394.184,609.042,393.244,606.753,392.07z
	 M703.993,402.631c0.208,0.045,0.417,0.09,0.625,0.135c0.574-0.844,1.157-1.684,1.72-2.535c0.617-0.934,1.231-1.869,1.821-2.816
	c1.795-2.896,1.5-3.494-2.635-4.539C705.007,396.166,704.5,399.398,703.993,402.631z M508.181,402.352
	c0.624,3.504,1.25,7.01,1.876,10.516c0.63-0.912,0.847-1.822,1.093-2.727c0.246-0.914,0.521-1.82,0.781-2.73
	C512.925,403.92,512.923,403.92,508.181,402.352z M887.192,401.619c0.245,0.078,0.49,0.154,0.734,0.232
	c1.65-1.408,3.302-2.818,5.059-4.318c-1.06-1.488-2.074-2.91-3.088-4.334c-0.213,0.004-0.427,0.006-0.641,0.008
	C888.569,396.012,887.881,398.814,887.192,401.619z M938.475,404.732c3.341-0.533,4.27-2.471,4.158-4.789
	c-0.071-1.469-0.688-2.969-3.099-3.531C939.171,399.273,938.826,401.973,938.475,404.732z M526.078,391.492
	c-0.313-0.109-0.628-0.219-0.943-0.33c-1.278,1.227-2.558,2.451-4.004,3.838c2.328,1.428,4.148,2.547,6.427,3.943
	C527.003,396.15,526.541,393.822,526.078,391.492z M787.634,406.332c0.215-0.033,0.428-0.066,0.643-0.1
	c0.174-1.834,0.516-3.672,0.451-5.498c-0.031-0.943-0.55-2.098-1.293-2.719c-0.504-0.422-1.783-0.082-3.406-0.082
	C785.394,401.115,786.513,403.725,787.634,406.332z M921.429,399.691c3.169-1.619,1.109-7.033-4.427-11.525
	C918.43,391.883,919.935,395.799,921.429,399.691z M782.894,409.32c0.166-0.049,0.334-0.096,0.5-0.143
	c-0.127-1.635-0.082-3.301-0.43-4.895c-0.301-1.377-0.957-2.717-1.671-3.973c-0.14-0.244-1.265-0.029-1.935-0.027
	c0.164,1.305,0.225,2.631,0.541,3.906c0.139,0.553,0.906,0.955,1.211,1.506C781.766,406.875,782.307,408.107,782.894,409.32z
	 M941.843,404.623c-4.517,2.422-4.996,6.006-1.441,9.379C940.878,410.902,941.339,407.906,941.843,404.623z M526.813,403.619
	c-2.189-1.115-4.226-2.152-6.41-3.264c-0.369,3.936-0.088,4.254,4.553,5.527C525.503,405.217,526.062,404.535,526.813,403.619z
	 M605.301,403.094c-4.327,1.746-4.136,3.521,0.956,8.547C605.923,408.646,605.614,405.895,605.301,403.094z M822.921,395.885
	c0.095,0.229,0.188,0.459,0.283,0.688c1.709-0.643,3.417-1.287,5.391-2.027c-0.797-1.459-1.406-2.576-1.974-3.617
	C822.862,391.283,823.88,394.137,822.921,395.885z M601.66,402.299c0.271,0.135,0.541,0.27,0.811,0.402
	c0.792-0.67,2.217-1.307,2.263-2.016c0.146-2.285-0.219-4.598-0.386-6.898c-0.352-0.01-0.704-0.018-1.056-0.027
	C602.748,396.605,602.204,399.453,601.66,402.299z M633.364,410.484c0.338,0.061,0.676,0.119,1.014,0.18
	c0.878-4.418,1.756-8.836,2.634-13.256c-0.287-0.047-0.573-0.096-0.86-0.143C633.884,401.432,634.521,406.117,633.364,410.484z
	 M561.919,398.293c-2.502,0.426-3.043,0.715-2.677,2.232c0.378,1.578-1.194,4.242,2.677,4.441
	C561.919,402.736,561.919,400.586,561.919,398.293z M837.966,391.408c-3.928,1.445-5.078,3.594-3.125,6.074
	C835.444,395.203,839.554,394.76,837.966,391.408z M499.823,398.156c-0.247-0.01-0.494-0.02-0.741-0.027
	c-1.84,2.045-1.966,7.109-0.077,10.217C499.292,404.766,499.558,401.461,499.823,398.156z M838.954,410.816
	c1.402-6.451,1.211-7.041-2.601-8.209c0.681,2.531,1.335,4.988,2.01,7.443C838.411,410.229,838.604,410.373,838.954,410.816z
	 M909.304,393.322c-0.464,0.105-0.928,0.211-1.391,0.318c1.095,3.549,2.189,7.1,3.285,10.648c0.352-0.084,0.704-0.168,1.057-0.252
	C911.271,400.465,910.287,396.893,909.304,393.322z M703.146,410.689c4.248-1.6,4.188-4.855,5.28-8.248
	C704.931,404.666,704.774,407.818,703.146,410.689z M594.924,408.859c0.759-0.893,1.552-1.824,2.496-2.934
	c-1.587-0.75-2.868-1.357-4.304-2.035C592.654,406.084,591.853,408.006,594.924,408.859z M835.667,400.787
	c4.206-1.871,4.616-2.84,2.81-6.443C837.461,396.51,835.161,397.91,835.667,400.787z M736.194,395.379
	c-1.973-1.018-3.878-2-5.783-2.982c-0.053,0.109-0.104,0.219-0.157,0.328c1.269,1.852,2.535,3.705,3.837,5.607
	C734.761,397.391,735.407,396.482,736.194,395.379z M629.243,398.027c0.281,0.098,0.562,0.195,0.842,0.293
	c1.104-1.727,2.209-3.455,3.377-5.281c-1.073-0.453-1.848-0.781-2.924-1.234C630.08,394.006,629.661,396.016,629.243,398.027z
	 M772.862,398.809c-3.909,1.48-4.831,2.57-4.037,4.943C771.063,402.658,773.688,401.924,772.862,398.809z M824.762,403.758
	c0.243-0.004,0.485-0.01,0.729-0.016c0.767-1.645,1.532-3.289,2.286-4.904c-2.053-1.082-3.34-0.867-3.42,0.543
	C824.276,400.83,824.609,402.299,824.762,403.758z M589.681,399.145c1.555-2.441,2.896-4.547,4.355-6.834
	C588.667,394.518,588.667,394.518,589.681,399.145z M694.509,405.172c0,2.332,0,4.135,0,6.256c1.195-1.512,2.162-2.732,3.246-4.1
	C696.767,406.672,695.831,406.051,694.509,405.172z M898.364,406.85c0.162,0.014,0.325,0.027,0.486,0.041
	c0.249-2.209,0.497-4.422,0.799-7.109c-1.413,0.631-2.105,0.939-2.869,1.281c0.365,1.391,0.691,2.654,1.033,3.914
	C897.982,405.604,898.181,406.225,898.364,406.85z M661.065,411.107c0.59-3.381-0.156-6.342-3.861-6.797
	C658.419,406.447,659.656,408.627,661.065,411.107z M520.589,405.348c-0.237,0.123-0.476,0.246-0.715,0.369
	c0.564,1.592,1.127,3.184,1.691,4.773c0.219-0.01,0.438-0.021,0.658-0.031c0.504-0.947,1.011-1.895,1.618-3.033
	C522.708,406.701,521.649,406.025,520.589,405.348z M520.04,399.135c2.251,0.857,4.188,1.594,6.123,2.33
	c0.086-0.125,0.172-0.252,0.258-0.379c-1.769-1.426-3.535-2.85-5.553-4.479C520.534,397.625,520.315,398.293,520.04,399.135z
	 M772.099,404.299c-3.543,2.275-3.82,3.025-2.265,6.357C770.532,408.697,771.229,406.738,772.099,404.299z M643.39,393.121
	c-0.635-0.813-1.289-1.65-2.047-2.621c-0.903,0.992-1.598,1.756-2.311,2.541C641.906,394.611,641.906,394.611,643.39,393.121z
	 M928.767,402.898c0.737,2.742,1.475,5.482,2.368,8.805C932.454,407.855,930.623,405.373,928.767,402.898z M561.677,411.533
	c1.197-3.75,0.586-5.285-2.431-5.59C560.067,407.834,560.79,409.492,561.677,411.533z M502.71,393.469
	c-1.372,1.316-2.721,2.186-1.92,3.73c0.335,0.646,1.402,0.98,2.135,1.455c0.166-0.129,0.33-0.258,0.496-0.385
	C503.207,396.824,502.993,395.381,502.71,393.469z M908.005,402.596c-0.326-1.797-0.633-3.482-1.029-5.654
	C904.83,400.521,905.13,401.947,908.005,402.596z M725.443,392.723c-1.634,2.041-3.009,3.758-4.385,5.475
	C724.795,396.875,726.345,395.002,725.443,392.723z M670.886,403.488c2.086-0.732,3.492-1.664,2.408-3.832
	C669.828,401.289,669.579,401.672,670.886,403.488z M745.843,406.967c-0.227,0.086-0.453,0.17-0.68,0.256
	c0.986,2.064,1.971,4.129,2.957,6.195C748.115,410.994,748.306,408.508,745.843,406.967z M677.39,410.074
	c0.221,0.055,0.441,0.109,0.662,0.164c0.738-1.689,1.479-3.379,2.42-5.533C676.868,405.939,677.187,408.027,677.39,410.074z
	 M501.479,403.576c2.91-3.227,2.791-4.027-0.574-4.635C501.089,400.416,501.265,401.844,501.479,403.576z M473.622,406.469
	c3.107-1.775,3.282-2.287,1.939-6.051C474.832,402.695,474.278,404.422,473.622,406.469z M534.694,407.871
	c0.188-0.023,0.374-0.047,0.562-0.07c0.202-1.502,0.403-3.004,0.676-5.021c-1.388,1-2.248,1.621-3.252,2.346
	C533.405,406.111,534.05,406.992,534.694,407.871z M736.135,401.199c3.059-1.051,3.61-3.004,1.698-4.645
	C737.239,398.182,736.687,399.691,736.135,401.199z M531.671,402.158c0.252,0.264,0.505,0.525,0.758,0.789
	c1.355-1.154,4.127-0.885,4.186-4.129C534.665,400.135,533.169,401.145,531.671,402.158z M699.09,406.217
	c0.231-1.195,0.417-2.148,0.66-3.408c-1.685,0.496-3.021,0.889-4.698,1.383C696.537,404.938,697.635,405.488,699.09,406.217z
	 M687.55,400.006c1.355-0.678,3.854-0.217,2.466-3.105C688.843,397.727,686.301,397.229,687.55,400.006z M543.222,403.564
	c0.27,0.008,0.537,0.018,0.805,0.025c0.236-1.068,0.673-2.15,0.59-3.199c-0.025-0.322-1.467-0.553-2.869-1.035
	C542.396,401.209,542.81,402.387,543.222,403.564z M911.69,390.004c-2.359,1.363-2.163,1.998,1.155,4.5
	C912.444,392.939,912.091,391.564,911.69,390.004z M617.544,398.229c-0.223,0.148-0.443,0.297-0.665,0.445
	c0.487,0.865,0.904,1.773,1.499,2.574c0.211,0.283,0.85,0.307,1.294,0.449c0.075-0.486,0.41-1.15,0.179-1.426
	C619.208,399.504,618.329,398.898,617.544,398.229z M612.255,402.756c0.166-0.129,0.333-0.26,0.5-0.389
	c-0.361-0.861-0.725-1.723-1.146-2.727c-1.035,0.572-1.785,0.986-3.07,1.697C610.18,401.965,611.218,402.361,612.255,402.756z
	 M677.501,403.979c1.543-0.807,3.52-1.105,2.83-3.496C678.858,401.334,676.587,401.344,677.501,403.979z M578.151,408.424
	c0.246,0.033,0.493,0.066,0.74,0.1c0-1.578,0-3.156,0-4.734c-0.247-0.006-0.494-0.012-0.74-0.018
	C578.151,405.322,578.151,406.873,578.151,408.424z M513.624,398.002c-1.336,1.01-2.393,1.809-3.701,2.799
	c1.34,0.301,2.165,0.488,3.195,0.721C513.296,400.289,513.448,399.232,513.624,398.002z M846.899,396.941
	c-0.137-0.174-0.274-0.35-0.412-0.523c-1.098,0.463-2.197,0.926-3.469,1.463c0.516,0.834,0.904,1.465,1.383,2.24
	C845.341,398.926,846.12,397.934,846.899,396.941z M633.944,393.297c-0.699,1.482-1.287,2.729-2.098,4.449
	C635.274,395.672,635.676,394.832,633.944,393.297z M707.641,401.152c2.128-1.043,3.099-3.393,2.146-4.545
	C709.05,398.168,708.345,399.66,707.641,401.152z M669.368,411.098c2.732-2.572,2.732-2.572,0.961-4.318
	C669.976,408.369,669.671,409.732,669.368,411.098z M905.188,402.863c1.034,1.561,1.929,2.91,3.033,4.578
	C908.056,403.51,908.056,403.51,905.188,402.863z M878.078,396.713c0,1.225,0,2.121,0,3.326c1.047-0.52,1.823-0.906,2.774-1.377
	C879.866,397.971,879.12,397.447,878.078,396.713z M740.563,403.768c-1.299,2.268-0.049,4.543,0,6.814
	C740.563,408.311,740.563,406.039,740.563,403.768z M609.57,402.586c0.276,1.369,0.489,2.416,0.822,4.063
	c0.853-1.354,1.343-2.129,1.925-3.053C611.336,403.234,610.63,402.977,609.57,402.586z M896.73,397.34
	c1.141,0.58,1.938,0.986,2.919,1.484c0-1.146,0-2.033,0-3.201C898.644,396.215,897.869,396.67,896.73,397.34z"/>
</svg>
